<svg xmlns="http://www.w3.org/2000/svg" width="1415.892" height="433.996"><g data-name="Group 114"><g data-name="Group 112"><path data-name="Path 542" d="M1415.892 172.982 898.073 433.916h6.5l511.322-257.66Z" fill="#b7b677"/><g data-name="Group 109"><path data-name="Path 543" d="m0 433.996 650.969-328.2a1.462 1.462 0 0 1 1.313 2.613L7.14 433.996Z" fill="#b7b677"/></g><path data-name="Path 544" d="M846.35 204.095a1.464 1.464 0 0 0-1.962-.65L387.019 433.917h6.5l452.185-227.859a1.466 1.466 0 0 0 .646-1.963Z" fill="#b7b677"/><g data-name="Group 110"><path data-name="Path 545" d="M1101.456 334.532a1.464 1.464 0 0 1-.656-.154L650.969 108.411a1.462 1.462 0 1 1 1.313-2.613l449.827 225.967a1.461 1.461 0 0 1-.657 2.767Z" fill="#b7b677"/></g><g data-name="Group 111"><path data-name="Path 546" d="M1311.942 228.114a1.464 1.464 0 0 1-.656-.154L863 2.769a1.462 1.462 0 1 1 1.313-2.612l448.286 225.191a1.461 1.461 0 0 1-.657 2.766Z" fill="#b7b677"/></g><path data-name="Path 547" d="M1247.724 259.177a1.463 1.463 0 0 0 .65 1.963l167.518 84.152v-3.273l-166.2-83.492a1.463 1.463 0 0 0-1.968.65Z" fill="#b7b677"/><path data-name="Path 548" d="M381.847 241.569a1.462 1.462 0 0 0 .649 1.962l378.99 190.386h6.513l-384.19-193a1.464 1.464 0 0 0-1.962.652Z" fill="#b7b677"/></g><g data-name="Group 113" fill="#b7b677" transform="translate(-506.144 -650.318)"><ellipse data-name="Ellipse 22" cx="7.902" cy="3.952" rx="7.902" ry="3.952" transform="translate(1074.826 985.951)"/><path data-name="Path 549" d="M1162.913 754.8c3.085 1.543 3.085 4.046 0 5.589a14.067 14.067 0 0 1-11.175 0c-3.086-1.543-3.086-4.046 0-5.589a14.068 14.068 0 0 1 11.175 0Z"/><path data-name="Path 550" d="M1611.964 980.6c3.086 1.543 3.086 4.046 0 5.589a14.067 14.067 0 0 1-11.175 0c-3.086-1.543-3.086-4.046 0-5.589a14.068 14.068 0 0 1 11.175 0Z"/><ellipse data-name="Ellipse 23" cx="7.902" cy="3.952" rx="7.902" ry="3.952" transform="translate(1810.517 872.64)"/><ellipse data-name="Ellipse 24" cx="7.902" cy="3.952" rx="7.902" ry="3.952" transform="translate(881.991 888.468)"/></g></g></svg>