<svg xmlns="http://www.w3.org/2000/svg" width="404.328" height="475.526" viewBox="0 0 404.328 475.526"><g transform="translate(-1241.372 -363.162)"><g transform="translate(0 -1193.157)"><path d="M1645.7,1991.385a3.436,3.436,0,0,1-1.826,2.739c-1.008.5-1.826.1-1.826-.913a3.435,3.435,0,0,1,1.826-2.738C1644.882,1989.968,1645.7,1990.377,1645.7,1991.385Z" fill="#b7b677"/><path d="M1642.135,1979.174a3.3,3.3,0,0,1,1.826-2.565c.96-.432,1.7.015,1.652,1a3.309,3.309,0,0,1-1.826,2.565C1642.827,1980.606,1642.087,1980.158,1642.135,1979.174Z" fill="#b7b677"/><path d="M1642.222,1965.137a3.169,3.169,0,0,1,1.826-2.391c.912-.361,1.574.126,1.478,1.086a3.168,3.168,0,0,1-1.826,2.392C1642.788,1966.583,1642.126,1966.1,1642.222,1965.137Z" fill="#b7b677"/><path d="M1642.309,1951.1a3.02,3.02,0,0,1,1.826-2.217c.864-.289,1.448.237,1.3,1.173a3.02,3.02,0,0,1-1.826,2.217C1642.749,1952.562,1642.165,1952.036,1642.309,1951.1Z" fill="#b7b677"/><path d="M1642.4,1937.063a2.867,2.867,0,0,1,1.826-2.044c.816-.216,1.322.348,1.13,1.261a2.864,2.864,0,0,1-1.826,2.043C1642.71,1938.539,1642.2,1937.975,1642.4,1937.063Z" fill="#b7b677"/><path d="M1642.483,1923.025a2.7,2.7,0,0,1,1.826-1.869c.768-.144,1.2.459.956,1.348a2.7,2.7,0,0,1-1.826,1.869C1642.671,1924.517,1642.243,1923.914,1642.483,1923.025Z" fill="#b7b677"/><path d="M1626.951,2000.762a3.433,3.433,0,0,1-1.826,2.738c-1.008.505-1.825.1-1.825-.913a3.434,3.434,0,0,1,1.825-2.738C1626.134,1999.344,1626.951,1999.753,1626.951,2000.762Z" fill="#b7b677"/><path d="M1623.387,1988.55a3.3,3.3,0,0,1,1.825-2.564c.96-.433,1.7.015,1.652,1a3.3,3.3,0,0,1-1.826,2.565C1624.078,1989.982,1623.338,1989.535,1623.387,1988.55Z" fill="#b7b677"/><path d="M1623.473,1974.513a3.169,3.169,0,0,1,1.826-2.391c.912-.36,1.574.126,1.478,1.087a3.167,3.167,0,0,1-1.826,2.391C1624.039,1975.96,1623.378,1975.473,1623.473,1974.513Z" fill="#b7b677"/><path d="M1623.56,1960.476a3.022,3.022,0,0,1,1.826-2.217c.864-.288,1.448.237,1.3,1.173a3.019,3.019,0,0,1-1.826,2.217C1624,1961.938,1623.416,1961.412,1623.56,1960.476Z" fill="#b7b677"/><path d="M1623.647,1946.439a2.866,2.866,0,0,1,1.826-2.043c.816-.216,1.322.348,1.13,1.26a2.862,2.862,0,0,1-1.826,2.043C1623.961,1947.916,1623.455,1947.351,1623.647,1946.439Z" fill="#b7b677"/><path d="M1623.734,1932.4a2.7,2.7,0,0,1,1.826-1.87c.768-.144,1.2.459.956,1.348a2.7,2.7,0,0,1-1.825,1.869C1623.922,1933.893,1623.494,1933.29,1623.734,1932.4Z" fill="#b7b677"/><path d="M1623.821,1918.365a2.522,2.522,0,0,1,1.826-1.7c.72-.072,1.071.57.783,1.434a2.522,2.522,0,0,1-1.826,1.7C1623.884,1919.871,1623.533,1919.229,1623.821,1918.365Z" fill="#b7b677"/><path d="M1623.908,1904.327a2.333,2.333,0,0,1,1.826-1.521c.672,0,.944.681.608,1.521a2.335,2.335,0,0,1-1.825,1.522C1623.845,1905.849,1623.572,1905.168,1623.908,1904.327Z" fill="#b7b677"/><path d="M1623.995,1890.29a2.145,2.145,0,0,1,1.826-1.348c.624.073.819.793.435,1.609a2.145,2.145,0,0,1-1.826,1.348C1623.806,1891.827,1623.611,1891.107,1623.995,1890.29Z" fill="#b7b677"/><path d="M1624.082,1876.253c.432-.792,1.25-1.318,1.826-1.174s.693.9.26,1.7-1.249,1.318-1.825,1.175S1623.65,1877.045,1624.082,1876.253Z" fill="#b7b677"/><path d="M1624.169,1862.216c.48-.768,1.3-1.216,1.826-1s.567,1.014.087,1.782-1.3,1.216-1.826,1S1623.689,1862.984,1624.169,1862.216Z" fill="#b7b677"/><path d="M1624.256,1848.179c.528-.745,1.346-1.114,1.826-.826s.441,1.125-.087,1.869-1.346,1.114-1.826.826S1623.728,1848.923,1624.256,1848.179Z" fill="#b7b677"/><path d="M1624.343,1834.142c.576-.72,1.393-1.013,1.825-.653s.316,1.236-.26,1.956-1.394,1.013-1.826.653S1623.767,1834.862,1624.343,1834.142Z" fill="#b7b677"/><path d="M1624.43,1820.1c.624-.7,1.441-.91,1.826-.478s.189,1.347-.435,2.043-1.442.911-1.826.479S1623.806,1820.8,1624.43,1820.1Z" fill="#b7b677"/><path d="M1624.517,1806.067c.672-.672,1.489-.808,1.825-.3a1.913,1.913,0,0,1-.608,2.13c-.673.672-1.49.808-1.826.3A1.914,1.914,0,0,1,1624.517,1806.067Z" fill="#b7b677"/><path d="M1624.6,1792.03c.72-.648,1.537-.707,1.826-.13a2.136,2.136,0,0,1-.783,2.217c-.72.648-1.537.706-1.826.13A2.135,2.135,0,0,1,1624.6,1792.03Z" fill="#b7b677"/><path d="M1624.691,1777.993c.768-.624,1.585-.605,1.825.043a2.359,2.359,0,0,1-.956,2.3c-.768.625-1.586.6-1.826-.043A2.359,2.359,0,0,1,1624.691,1777.993Z" fill="#b7b677"/><path d="M1624.777,1763.956c.817-.6,1.634-.5,1.826.217a2.585,2.585,0,0,1-1.13,2.391c-.816.6-1.634.5-1.826-.217A2.585,2.585,0,0,1,1624.777,1763.956Z" fill="#b7b677"/><path d="M1624.864,1749.919c.865-.577,1.682-.4,1.826.391a2.807,2.807,0,0,1-1.3,2.478c-.864.576-1.682.4-1.826-.391A2.805,2.805,0,0,1,1624.864,1749.919Z" fill="#b7b677"/><path d="M1624.951,1735.882c.913-.553,1.73-.3,1.826.564a3.021,3.021,0,0,1-1.478,2.565c-.912.553-1.73.3-1.826-.564A3.024,3.024,0,0,1,1624.951,1735.882Z" fill="#b7b677"/><path d="M1625.038,1721.844c.961-.528,1.778-.2,1.826.739a3.233,3.233,0,0,1-1.652,2.652c-.96.528-1.777.2-1.825-.739A3.231,3.231,0,0,1,1625.038,1721.844Z" fill="#b7b677"/><path d="M1626.951,1708.72a3.436,3.436,0,0,1-1.826,2.739c-1.008.5-1.825.095-1.825-.913a3.436,3.436,0,0,1,1.825-2.739C1626.134,1707.3,1626.951,1707.712,1626.951,1708.72Z" fill="#b7b677"/><path d="M1608.2,2010.138a3.434,3.434,0,0,1-1.825,2.738c-1.009.505-1.826.1-1.826-.912a3.435,3.435,0,0,1,1.826-2.739C1607.385,2008.721,1608.2,2009.129,1608.2,2010.138Z" fill="#b7b677"/><path d="M1604.638,1997.927a3.3,3.3,0,0,1,1.826-2.565c.96-.433,1.7.015,1.652,1a3.307,3.307,0,0,1-1.826,2.565C1605.329,1999.358,1604.59,1998.911,1604.638,1997.927Z" fill="#b7b677"/><path d="M1604.725,1983.889a3.169,3.169,0,0,1,1.825-2.391c.913-.36,1.574.127,1.478,1.087a3.168,3.168,0,0,1-1.825,2.391C1605.29,1985.336,1604.629,1984.85,1604.725,1983.889Z" fill="#b7b677"/><path d="M1604.812,1969.852a3.02,3.02,0,0,1,1.826-2.217c.864-.288,1.448.238,1.3,1.174a3.025,3.025,0,0,1-1.826,2.217C1605.252,1971.314,1604.668,1970.788,1604.812,1969.852Z" fill="#b7b677"/><path d="M1604.9,1955.815a2.865,2.865,0,0,1,1.825-2.043c.817-.216,1.323.348,1.13,1.26a2.863,2.863,0,0,1-1.825,2.044C1605.213,1957.292,1604.707,1956.727,1604.9,1955.815Z" fill="#b7b677"/><path d="M1604.986,1941.778a2.7,2.7,0,0,1,1.826-1.869c.768-.144,1.2.459.956,1.347a2.7,2.7,0,0,1-1.826,1.869C1605.174,1943.27,1604.745,1942.666,1604.986,1941.778Z" fill="#b7b677"/><path d="M1605.073,1927.741a2.52,2.52,0,0,1,1.825-1.695c.721-.073,1.071.57.783,1.434a2.522,2.522,0,0,1-1.826,1.7C1605.135,1929.247,1604.785,1928.6,1605.073,1927.741Z" fill="#b7b677"/><path d="M1605.159,1913.7a2.335,2.335,0,0,1,1.826-1.522c.672,0,.945.681.609,1.521a2.334,2.334,0,0,1-1.826,1.522C1605.1,1915.225,1604.823,1914.544,1605.159,1913.7Z" fill="#b7b677"/><path d="M1605.246,1899.667a2.143,2.143,0,0,1,1.826-1.348c.625.072.819.792.435,1.608a2.143,2.143,0,0,1-1.826,1.348C1605.057,1901.2,1604.862,1900.483,1605.246,1899.667Z" fill="#b7b677"/><path d="M1605.333,1885.629c.432-.792,1.25-1.318,1.826-1.173s.693.9.261,1.695-1.249,1.318-1.826,1.174S1604.9,1886.422,1605.333,1885.629Z" fill="#b7b677"/><path d="M1605.42,1871.592c.481-.768,1.3-1.216,1.826-1s.567,1.014.087,1.783-1.3,1.215-1.826,1S1604.94,1872.36,1605.42,1871.592Z" fill="#b7b677"/><path d="M1605.507,1857.555c.528-.744,1.346-1.114,1.826-.826s.441,1.125-.087,1.869-1.345,1.114-1.826.826S1604.979,1858.3,1605.507,1857.555Z" fill="#b7b677"/><path d="M1605.594,1843.518c.577-.721,1.394-1.012,1.826-.652s.315,1.236-.261,1.956-1.394,1.012-1.826.652S1605.018,1844.238,1605.594,1843.518Z" fill="#b7b677"/><path d="M1605.681,1829.481c.624-.7,1.442-.911,1.826-.479s.19,1.347-.435,2.044-1.441.91-1.826.478S1605.057,1830.177,1605.681,1829.481Z" fill="#b7b677"/><path d="M1605.768,1815.444c.672-.673,1.49-.809,1.826-.3a1.913,1.913,0,0,1-.609,2.13c-.672.672-1.489.809-1.826.3A1.913,1.913,0,0,1,1605.768,1815.444Z" fill="#b7b677"/><path d="M1605.855,1801.406c.72-.648,1.538-.706,1.826-.13a2.133,2.133,0,0,1-.783,2.217c-.72.648-1.537.707-1.825.131A2.136,2.136,0,0,1,1605.855,1801.406Z" fill="#b7b677"/><path d="M1605.942,1787.369c.768-.624,1.586-.6,1.826.044a2.36,2.36,0,0,1-.956,2.3c-.769.624-1.586.6-1.826-.044A2.358,2.358,0,0,1,1605.942,1787.369Z" fill="#b7b677"/><path d="M1606.029,1773.332c.816-.6,1.634-.5,1.825.217a2.58,2.58,0,0,1-1.13,2.391c-.816.6-1.633.5-1.825-.217A2.585,2.585,0,0,1,1606.029,1773.332Z" fill="#b7b677"/><path d="M1589.454,2019.514a3.437,3.437,0,0,1-1.826,2.739c-1.008.5-1.826.095-1.826-.913a3.438,3.438,0,0,1,1.826-2.739C1588.636,2018.1,1589.454,2018.506,1589.454,2019.514Z" fill="#b7b677"/><path d="M1585.889,2007.3a3.307,3.307,0,0,1,1.826-2.565c.96-.432,1.7.016,1.652,1a3.307,3.307,0,0,1-1.826,2.565C1586.581,2008.735,1585.841,2008.287,1585.889,2007.3Z" fill="#b7b677"/><path d="M1585.976,1993.266a3.168,3.168,0,0,1,1.826-2.391c.912-.36,1.574.126,1.478,1.086a3.168,3.168,0,0,1-1.826,2.391C1586.542,1994.713,1585.88,1994.226,1585.976,1993.266Z" fill="#b7b677"/><path d="M1586.063,1979.229a3.024,3.024,0,0,1,1.826-2.218c.864-.288,1.448.238,1.3,1.174a3.02,3.02,0,0,1-1.826,2.217C1586.5,1980.69,1585.919,1980.165,1586.063,1979.229Z" fill="#b7b677"/><path d="M1586.15,1965.191a2.866,2.866,0,0,1,1.826-2.043c.816-.216,1.322.348,1.13,1.261a2.866,2.866,0,0,1-1.826,2.043C1586.464,1966.668,1585.958,1966.1,1586.15,1965.191Z" fill="#b7b677"/><path d="M1586.5,1909.043a2.143,2.143,0,0,1,1.826-1.348c.624.072.818.792.434,1.608a2.141,2.141,0,0,1-1.825,1.348C1586.308,1910.579,1586.114,1909.859,1586.5,1909.043Z" fill="#b7b677"/><path d="M1586.585,1895.006c.432-.793,1.249-1.318,1.825-1.174s.694.9.261,1.695-1.249,1.318-1.825,1.174S1586.153,1895.8,1586.585,1895.006Z" fill="#b7b677"/><path d="M1586.672,1880.969c.48-.769,1.3-1.216,1.826-1s.566,1.014.086,1.782-1.3,1.216-1.825,1S1586.192,1881.737,1586.672,1880.969Z" fill="#b7b677"/><path d="M1586.759,1866.931c.528-.744,1.345-1.113,1.825-.826s.442,1.125-.086,1.869-1.346,1.115-1.826.826S1586.231,1867.676,1586.759,1866.931Z" fill="#b7b677"/><path d="M1586.846,1852.894c.576-.72,1.393-1.012,1.825-.652s.316,1.236-.261,1.956-1.393,1.013-1.825.652S1586.269,1853.614,1586.846,1852.894Z" fill="#b7b677"/><path d="M1586.933,1838.857c.624-.7,1.441-.91,1.825-.478s.19,1.346-.434,2.043-1.442.91-1.826.478S1586.308,1839.553,1586.933,1838.857Z" fill="#b7b677"/><path d="M1587.02,1824.82c.672-.672,1.489-.809,1.825-.3a1.913,1.913,0,0,1-.609,2.131c-.672.672-1.489.808-1.825.3A1.912,1.912,0,0,1,1587.02,1824.82Z" fill="#b7b677"/><path d="M1587.106,1810.783c.721-.648,1.538-.707,1.826-.131a2.134,2.134,0,0,1-.782,2.217c-.721.648-1.538.707-1.826.131A2.134,2.134,0,0,1,1587.106,1810.783Z" fill="#b7b677"/><path d="M1587.194,1796.746c.768-.625,1.585-.6,1.825.043a2.36,2.36,0,0,1-.956,2.3c-.769.624-1.586.6-1.826-.043A2.358,2.358,0,0,1,1587.194,1796.746Z" fill="#b7b677"/><path d="M1587.28,1782.708c.816-.6,1.634-.5,1.826.218a2.586,2.586,0,0,1-1.13,2.391c-.816.6-1.634.5-1.826-.218A2.586,2.586,0,0,1,1587.28,1782.708Z" fill="#b7b677"/><path d="M1587.541,1740.6c.96-.528,1.778-.2,1.826.739a3.233,3.233,0,0,1-1.652,2.652c-.96.528-1.778.2-1.826-.739A3.233,3.233,0,0,1,1587.541,1740.6Z" fill="#b7b677"/><path d="M1589.454,1727.473a3.439,3.439,0,0,1-1.826,2.739c-1.008.5-1.826.095-1.826-.914a3.435,3.435,0,0,1,1.826-2.738C1588.636,1726.055,1589.454,1726.464,1589.454,1727.473Z" fill="#b7b677"/><path d="M1570.7,2028.89a3.433,3.433,0,0,1-1.826,2.739c-1.008.505-1.825.1-1.825-.913a3.434,3.434,0,0,1,1.825-2.738C1569.888,2027.473,1570.7,2027.882,1570.7,2028.89Z" fill="#b7b677"/><path d="M1567.141,2016.679a3.3,3.3,0,0,1,1.825-2.564c.961-.433,1.7.015,1.652,1a3.3,3.3,0,0,1-1.826,2.565C1567.832,2018.111,1567.093,2017.664,1567.141,2016.679Z" fill="#b7b677"/><path d="M1567.228,2002.642a3.17,3.17,0,0,1,1.825-2.391c.913-.36,1.574.126,1.478,1.087a3.169,3.169,0,0,1-1.825,2.391C1567.793,2004.089,1567.132,2003.6,1567.228,2002.642Z" fill="#b7b677"/><path d="M1567.4,1974.568a2.863,2.863,0,0,1,1.825-2.043c.817-.217,1.323.348,1.13,1.26a2.865,2.865,0,0,1-1.825,2.043C1567.715,1976.045,1567.209,1975.48,1567.4,1974.568Z" fill="#b7b677"/><path d="M1567.488,1960.531a2.7,2.7,0,0,1,1.826-1.87c.769-.144,1.2.459.957,1.348a2.7,2.7,0,0,1-1.826,1.869C1567.676,1962.022,1567.248,1961.419,1567.488,1960.531Z" fill="#b7b677"/><path d="M1567.575,1946.493a2.522,2.522,0,0,1,1.826-1.7c.72-.072,1.07.57.782,1.434a2.518,2.518,0,0,1-1.825,1.7C1567.638,1948,1567.287,1947.358,1567.575,1946.493Z" fill="#b7b677"/><path d="M1567.662,1932.456a2.335,2.335,0,0,1,1.826-1.521c.672,0,.945.681.609,1.521a2.336,2.336,0,0,1-1.826,1.522C1567.6,1933.978,1567.326,1933.3,1567.662,1932.456Z" fill="#b7b677"/><path d="M1567.749,1918.419a2.142,2.142,0,0,1,1.826-1.347c.624.072.819.792.435,1.608a2.144,2.144,0,0,1-1.826,1.348C1567.56,1919.956,1567.365,1919.236,1567.749,1918.419Z" fill="#b7b677"/><path d="M1567.836,1904.382c.432-.792,1.25-1.318,1.826-1.174s.693.9.261,1.7-1.25,1.317-1.826,1.173S1567.4,1905.174,1567.836,1904.382Z" fill="#b7b677"/><path d="M1568.358,1820.159c.72-.648,1.538-.707,1.825-.13a2.135,2.135,0,0,1-.782,2.217c-.72.648-1.538.706-1.826.13A2.135,2.135,0,0,1,1568.358,1820.159Z" fill="#b7b677"/><path d="M1568.445,1806.122c.768-.624,1.585-.6,1.826.043a2.359,2.359,0,0,1-.957,2.3c-.768.625-1.585.6-1.826-.043A2.359,2.359,0,0,1,1568.445,1806.122Z" fill="#b7b677"/><path d="M1568.532,1792.085c.816-.6,1.633-.5,1.825.217a2.581,2.581,0,0,1-1.13,2.391c-.816.6-1.633.5-1.825-.217A2.581,2.581,0,0,1,1568.532,1792.085Z" fill="#b7b677"/><path d="M1568.619,1778.048c.864-.577,1.681-.4,1.825.391a2.807,2.807,0,0,1-1.3,2.478c-.864.576-1.681.4-1.825-.391A2.8,2.8,0,0,1,1568.619,1778.048Z" fill="#b7b677"/><path d="M1568.706,1764.01c.912-.552,1.729-.3,1.825.565a3.02,3.02,0,0,1-1.478,2.565c-.912.553-1.729.3-1.825-.565A3.021,3.021,0,0,1,1568.706,1764.01Z" fill="#b7b677"/></g><g transform="translate(0 -1193.157)"><path d="M1500.991,1886.927a3.437,3.437,0,0,1-1.825,2.739c-1.008.5-1.826.095-1.826-.913a3.435,3.435,0,0,1,1.826-2.739C1500.174,1885.51,1500.991,1885.919,1500.991,1886.927Z" fill="#b9b19c"/><path d="M1497.427,1874.716a3.3,3.3,0,0,1,1.826-2.565c.96-.433,1.7.015,1.652,1a3.305,3.305,0,0,1-1.826,2.564C1498.118,1876.147,1497.379,1875.7,1497.427,1874.716Z" fill="#b9b19c"/><path d="M1497.514,1860.679a3.168,3.168,0,0,1,1.826-2.392c.912-.36,1.574.127,1.478,1.087a3.169,3.169,0,0,1-1.826,2.391C1498.079,1862.125,1497.418,1861.639,1497.514,1860.679Z" fill="#b9b19c"/><path d="M1497.6,1846.641a3.021,3.021,0,0,1,1.826-2.217c.864-.288,1.448.238,1.3,1.174a3.022,3.022,0,0,1-1.826,2.217C1498.041,1848.1,1497.457,1847.577,1497.6,1846.641Z" fill="#b9b19c"/><path d="M1497.688,1832.6a2.865,2.865,0,0,1,1.825-2.043c.817-.216,1.323.348,1.131,1.26a2.868,2.868,0,0,1-1.826,2.044C1498,1834.081,1497.5,1833.516,1497.688,1832.6Z" fill="#b9b19c"/><path d="M1497.775,1818.567a2.7,2.7,0,0,1,1.825-1.869c.769-.144,1.2.459.957,1.347a2.7,2.7,0,0,1-1.826,1.87C1497.963,1820.059,1497.535,1819.455,1497.775,1818.567Z" fill="#b9b19c"/><path d="M1482.243,1896.3a3.433,3.433,0,0,1-1.826,2.739c-1.008.5-1.826.095-1.826-.913a3.436,3.436,0,0,1,1.826-2.738C1481.426,1894.886,1482.243,1895.3,1482.243,1896.3Z" fill="#b9b19c"/><path d="M1478.678,1884.092a3.308,3.308,0,0,1,1.826-2.565c.96-.432,1.7.016,1.652,1a3.3,3.3,0,0,1-1.826,2.564C1479.37,1885.524,1478.63,1885.076,1478.678,1884.092Z" fill="#b9b19c"/><path d="M1478.765,1870.055a3.169,3.169,0,0,1,1.826-2.391c.912-.361,1.574.126,1.478,1.086a3.165,3.165,0,0,1-1.826,2.391C1479.331,1871.5,1478.669,1871.015,1478.765,1870.055Z" fill="#b9b19c"/><path d="M1478.852,1856.018a3.02,3.02,0,0,1,1.826-2.217c.864-.289,1.448.237,1.3,1.173a3.023,3.023,0,0,1-1.826,2.217C1479.292,1857.48,1478.708,1856.954,1478.852,1856.018Z" fill="#b9b19c"/><path d="M1478.939,1841.981a2.866,2.866,0,0,1,1.826-2.044c.816-.216,1.322.348,1.13,1.261a2.864,2.864,0,0,1-1.826,2.043C1479.253,1843.457,1478.747,1842.893,1478.939,1841.981Z" fill="#b9b19c"/><path d="M1479.026,1827.943a2.7,2.7,0,0,1,1.826-1.869c.768-.144,1.2.459.956,1.348a2.7,2.7,0,0,1-1.826,1.869C1479.214,1829.435,1478.786,1828.832,1479.026,1827.943Z" fill="#b9b19c"/><path d="M1479.113,1813.906a2.521,2.521,0,0,1,1.826-1.695c.72-.072,1.07.57.782,1.434a2.521,2.521,0,0,1-1.826,1.7C1479.175,1815.413,1478.825,1814.77,1479.113,1813.906Z" fill="#b9b19c"/><path d="M1479.2,1799.869a2.335,2.335,0,0,1,1.825-1.522c.673,0,.945.681.609,1.522a2.333,2.333,0,0,1-1.825,1.521C1479.136,1801.391,1478.864,1800.709,1479.2,1799.869Z" fill="#b9b19c"/><path d="M1479.287,1785.832a2.143,2.143,0,0,1,1.826-1.348c.624.072.818.792.434,1.609a2.141,2.141,0,0,1-1.826,1.347C1479.1,1787.368,1478.9,1786.648,1479.287,1785.832Z" fill="#b9b19c"/><path d="M1479.374,1771.8c.432-.793,1.249-1.318,1.826-1.174s.693.9.26,1.7-1.249,1.318-1.825,1.174S1478.942,1772.587,1479.374,1771.8Z" fill="#b9b19c"/><path d="M1479.461,1757.758c.48-.769,1.3-1.216,1.826-1s.567,1.014.086,1.782-1.3,1.216-1.825,1S1478.981,1758.526,1479.461,1757.758Z" fill="#b9b19c"/><path d="M1479.548,1743.72c.528-.744,1.345-1.114,1.825-.826s.442,1.125-.086,1.87-1.346,1.114-1.826.826S1479.019,1744.465,1479.548,1743.72Z" fill="#b9b19c"/><path d="M1479.635,1729.683c.576-.72,1.393-1.012,1.825-.652s.316,1.236-.26,1.956-1.394,1.012-1.826.653S1479.058,1730.4,1479.635,1729.683Z" fill="#b9b19c"/><path d="M1479.721,1715.646c.625-.7,1.442-.91,1.826-.478s.19,1.346-.434,2.043-1.442.91-1.826.478S1479.1,1716.342,1479.721,1715.646Z" fill="#b9b19c"/><path d="M1479.809,1701.609c.672-.672,1.489-.808,1.825-.305a1.914,1.914,0,0,1-.609,2.131c-.672.672-1.489.808-1.825.3A1.912,1.912,0,0,1,1479.809,1701.609Z" fill="#b9b19c"/><path d="M1479.9,1687.572c.721-.648,1.538-.707,1.826-.131a2.134,2.134,0,0,1-.782,2.217c-.72.649-1.538.707-1.826.131A2.134,2.134,0,0,1,1479.9,1687.572Z" fill="#b9b19c"/><path d="M1479.982,1673.535c.769-.625,1.586-.6,1.826.043a2.361,2.361,0,0,1-.956,2.3c-.769.624-1.586.605-1.826-.043A2.359,2.359,0,0,1,1479.982,1673.535Z" fill="#b9b19c"/><path d="M1480.069,1659.5c.817-.6,1.634-.5,1.826.217a2.583,2.583,0,0,1-1.13,2.39c-.816.6-1.634.5-1.826-.216A2.584,2.584,0,0,1,1480.069,1659.5Z" fill="#b9b19c"/><path d="M1480.156,1645.46c.864-.576,1.682-.4,1.826.391a2.806,2.806,0,0,1-1.3,2.478c-.865.577-1.682.4-1.826-.391A2.807,2.807,0,0,1,1480.156,1645.46Z" fill="#b9b19c"/><path d="M1480.243,1631.423c.913-.552,1.73-.3,1.826.565a3.021,3.021,0,0,1-1.478,2.565c-.912.552-1.73.3-1.826-.565A3.023,3.023,0,0,1,1480.243,1631.423Z" fill="#b9b19c"/><path d="M1480.33,1617.386c.96-.528,1.778-.2,1.826.739a3.234,3.234,0,0,1-1.652,2.652c-.96.528-1.778.2-1.826-.739A3.232,3.232,0,0,1,1480.33,1617.386Z" fill="#b9b19c"/><path d="M1482.243,1604.262a3.433,3.433,0,0,1-1.826,2.738c-1.008.505-1.826.1-1.826-.912a3.436,3.436,0,0,1,1.826-2.739C1481.426,1602.844,1482.243,1603.253,1482.243,1604.262Z" fill="#b9b19c"/><path d="M1463.494,1905.68a3.433,3.433,0,0,1-1.826,2.738c-1.008.505-1.825.1-1.825-.913a3.434,3.434,0,0,1,1.825-2.738C1462.677,1904.262,1463.494,1904.671,1463.494,1905.68Z" fill="#b9b19c"/><path d="M1459.93,1893.468a3.3,3.3,0,0,1,1.825-2.564c.961-.433,1.7.015,1.652,1a3.3,3.3,0,0,1-1.826,2.565C1460.621,1894.9,1459.882,1894.453,1459.93,1893.468Z" fill="#b9b19c"/><path d="M1460.017,1879.431a3.168,3.168,0,0,1,1.825-2.391c.913-.36,1.574.126,1.478,1.087a3.169,3.169,0,0,1-1.825,2.391C1460.582,1880.878,1459.921,1880.391,1460.017,1879.431Z" fill="#b9b19c"/><path d="M1460.1,1865.394a3.025,3.025,0,0,1,1.826-2.217c.864-.288,1.448.237,1.3,1.173a3.02,3.02,0,0,1-1.825,2.217C1460.543,1866.856,1459.96,1866.33,1460.1,1865.394Z" fill="#b9b19c"/><path d="M1460.191,1851.357a2.863,2.863,0,0,1,1.825-2.043c.817-.217,1.323.348,1.13,1.26a2.863,2.863,0,0,1-1.825,2.043C1460.505,1852.834,1460,1852.269,1460.191,1851.357Z" fill="#b9b19c"/><path d="M1460.277,1837.32a2.7,2.7,0,0,1,1.826-1.87c.768-.144,1.2.459.956,1.348a2.7,2.7,0,0,1-1.825,1.869C1460.465,1838.811,1460.037,1838.208,1460.277,1837.32Z" fill="#b9b19c"/><path d="M1460.364,1823.283a2.521,2.521,0,0,1,1.826-1.7c.72-.072,1.071.57.783,1.434a2.523,2.523,0,0,1-1.826,1.7C1460.427,1824.789,1460.076,1824.147,1460.364,1823.283Z" fill="#b9b19c"/><path d="M1460.451,1809.245a2.334,2.334,0,0,1,1.826-1.521c.672,0,.945.681.609,1.521a2.337,2.337,0,0,1-1.826,1.522C1460.388,1810.767,1460.115,1810.086,1460.451,1809.245Z" fill="#b9b19c"/><path d="M1460.538,1795.208a2.147,2.147,0,0,1,1.826-1.348c.624.073.819.792.435,1.609a2.143,2.143,0,0,1-1.826,1.348C1460.349,1796.745,1460.154,1796.025,1460.538,1795.208Z" fill="#b9b19c"/><path d="M1460.625,1781.171c.432-.792,1.25-1.318,1.826-1.174s.693.9.261,1.7-1.25,1.318-1.826,1.174S1460.193,1781.963,1460.625,1781.171Z" fill="#b9b19c"/><path d="M1460.712,1767.134c.48-.768,1.3-1.216,1.826-1s.567,1.014.087,1.782-1.3,1.216-1.826,1S1460.232,1767.9,1460.712,1767.134Z" fill="#b9b19c"/><path d="M1460.8,1753.1c.528-.745,1.346-1.114,1.826-.826s.441,1.125-.087,1.869-1.346,1.114-1.826.826S1460.271,1753.841,1460.8,1753.1Z" fill="#b9b19c"/><path d="M1460.886,1739.06c.576-.721,1.394-1.013,1.826-.653s.315,1.236-.261,1.956-1.394,1.013-1.826.653S1460.31,1739.78,1460.886,1739.06Z" fill="#b9b19c"/><path d="M1460.973,1725.022c.624-.7,1.442-.91,1.826-.478s.189,1.347-.435,2.043-1.441.911-1.826.478S1460.349,1725.719,1460.973,1725.022Z" fill="#b9b19c"/><path d="M1461.06,1710.985c.672-.672,1.489-.808,1.826-.3a1.913,1.913,0,0,1-.609,2.13c-.672.672-1.49.808-1.826.3A1.914,1.914,0,0,1,1461.06,1710.985Z" fill="#b9b19c"/><path d="M1461.147,1696.948c.72-.648,1.537-.707,1.826-.13a2.136,2.136,0,0,1-.783,2.217c-.72.648-1.538.706-1.826.13A2.135,2.135,0,0,1,1461.147,1696.948Z" fill="#b9b19c"/><path d="M1461.234,1682.911c.768-.624,1.585-.6,1.825.043a2.358,2.358,0,0,1-.956,2.3c-.768.625-1.586.6-1.826-.043A2.359,2.359,0,0,1,1461.234,1682.911Z" fill="#b9b19c"/><path d="M1461.321,1668.874c.816-.6,1.633-.5,1.825.217a2.581,2.581,0,0,1-1.13,2.391c-.816.6-1.634.5-1.825-.217A2.582,2.582,0,0,1,1461.321,1668.874Z" fill="#b9b19c"/><path d="M1444.746,1915.056a3.435,3.435,0,0,1-1.826,2.738c-1.009.505-1.826.1-1.826-.912a3.435,3.435,0,0,1,1.826-2.739C1443.928,1913.639,1444.746,1914.047,1444.746,1915.056Z" fill="#b9b19c"/><path d="M1441.181,1902.845a3.3,3.3,0,0,1,1.826-2.565c.96-.433,1.7.015,1.652,1a3.308,3.308,0,0,1-1.826,2.565C1441.873,1904.276,1441.133,1903.829,1441.181,1902.845Z" fill="#b9b19c"/><path d="M1441.268,1888.807a3.169,3.169,0,0,1,1.826-2.391c.912-.36,1.574.127,1.478,1.087a3.169,3.169,0,0,1-1.826,2.391C1441.834,1890.254,1441.172,1889.768,1441.268,1888.807Z" fill="#b9b19c"/><path d="M1441.355,1874.77a3.021,3.021,0,0,1,1.826-2.217c.864-.288,1.448.237,1.3,1.174a3.023,3.023,0,0,1-1.826,2.217C1441.8,1876.232,1441.211,1875.707,1441.355,1874.77Z" fill="#b9b19c"/><path d="M1441.442,1860.733a2.865,2.865,0,0,1,1.826-2.043c.816-.216,1.322.348,1.13,1.261a2.866,2.866,0,0,1-1.826,2.043C1441.756,1862.21,1441.25,1861.645,1441.442,1860.733Z" fill="#b9b19c"/><path d="M1441.79,1804.585a2.14,2.14,0,0,1,1.825-1.348c.625.072.819.792.435,1.608a2.142,2.142,0,0,1-1.826,1.348C1441.6,1806.121,1441.405,1805.4,1441.79,1804.585Z" fill="#b9b19c"/><path d="M1441.877,1790.547c.432-.792,1.249-1.318,1.825-1.173s.693.9.261,1.695-1.249,1.318-1.826,1.174S1441.444,1791.34,1441.877,1790.547Z" fill="#b9b19c"/><path d="M1441.964,1776.51c.48-.768,1.3-1.216,1.825-1s.567,1.014.087,1.783-1.3,1.215-1.825,1S1441.483,1777.279,1441.964,1776.51Z" fill="#b9b19c"/><path d="M1442.051,1762.473c.528-.744,1.345-1.114,1.825-.826s.441,1.125-.087,1.869-1.345,1.114-1.825.826S1441.522,1763.217,1442.051,1762.473Z" fill="#b9b19c"/><path d="M1442.137,1748.436c.577-.72,1.394-1.012,1.826-.652s.315,1.236-.261,1.956-1.393,1.012-1.825.652S1441.561,1749.156,1442.137,1748.436Z" fill="#b9b19c"/><path d="M1442.224,1734.4c.624-.7,1.442-.911,1.826-.479s.19,1.347-.435,2.044-1.441.91-1.825.478S1441.6,1735.095,1442.224,1734.4Z" fill="#b9b19c"/><path d="M1442.311,1720.362c.673-.672,1.49-.809,1.826-.305a1.913,1.913,0,0,1-.609,2.13c-.672.672-1.489.809-1.825.3A1.913,1.913,0,0,1,1442.311,1720.362Z" fill="#b9b19c"/><path d="M1442.4,1706.324c.72-.648,1.538-.706,1.826-.13a2.133,2.133,0,0,1-.783,2.217c-.72.648-1.537.707-1.825.13A2.135,2.135,0,0,1,1442.4,1706.324Z" fill="#b9b19c"/><path d="M1442.485,1692.287c.768-.624,1.586-.6,1.826.044a2.358,2.358,0,0,1-.956,2.3c-.769.625-1.586.606-1.826-.043A2.36,2.36,0,0,1,1442.485,1692.287Z" fill="#b9b19c"/><path d="M1442.572,1678.25c.816-.6,1.634-.5,1.826.217a2.585,2.585,0,0,1-1.13,2.391c-.817.6-1.634.5-1.826-.217A2.585,2.585,0,0,1,1442.572,1678.25Z" fill="#b9b19c"/><path d="M1442.833,1636.139c.96-.529,1.777-.2,1.826.738a3.232,3.232,0,0,1-1.652,2.652c-.961.529-1.778.2-1.826-.739A3.231,3.231,0,0,1,1442.833,1636.139Z" fill="#b9b19c"/><path d="M1444.746,1623.014a3.436,3.436,0,0,1-1.826,2.739c-1.009.5-1.826.1-1.826-.913a3.433,3.433,0,0,1,1.826-2.738C1443.928,1621.6,1444.746,1622.006,1444.746,1623.014Z" fill="#b9b19c"/><path d="M1426,1924.432a3.435,3.435,0,0,1-1.826,2.739c-1.008.5-1.826.095-1.826-.913a3.438,3.438,0,0,1,1.826-2.739C1425.18,1923.015,1426,1923.424,1426,1924.432Z" fill="#b9b19c"/><path d="M1422.432,1912.221a3.309,3.309,0,0,1,1.826-2.565c.961-.432,1.7.016,1.652,1a3.3,3.3,0,0,1-1.826,2.565C1423.124,1913.653,1422.384,1913.2,1422.432,1912.221Z" fill="#b9b19c"/><path d="M1422.52,1898.184a3.166,3.166,0,0,1,1.825-2.391c.912-.36,1.574.126,1.478,1.086a3.165,3.165,0,0,1-1.826,2.391C1423.085,1899.631,1422.424,1899.144,1422.52,1898.184Z" fill="#b9b19c"/><path d="M1422.693,1870.109a2.866,2.866,0,0,1,1.826-2.043c.816-.216,1.322.348,1.13,1.261a2.864,2.864,0,0,1-1.826,2.043C1423.007,1871.586,1422.5,1871.022,1422.693,1870.109Z" fill="#b9b19c"/><path d="M1422.78,1856.072a2.7,2.7,0,0,1,1.826-1.869c.768-.144,1.2.459.956,1.347a2.7,2.7,0,0,1-1.826,1.87C1422.968,1857.564,1422.54,1856.961,1422.78,1856.072Z" fill="#b9b19c"/><path d="M1422.867,1842.035a2.522,2.522,0,0,1,1.826-1.7c.72-.072,1.07.57.782,1.434a2.521,2.521,0,0,1-1.825,1.7C1422.929,1843.542,1422.579,1842.9,1422.867,1842.035Z" fill="#b9b19c"/><path d="M1422.954,1828a2.333,2.333,0,0,1,1.826-1.521c.672,0,.944.681.608,1.521a2.333,2.333,0,0,1-1.825,1.521C1422.891,1829.519,1422.618,1828.838,1422.954,1828Z" fill="#b9b19c"/><path d="M1423.041,1813.961a2.144,2.144,0,0,1,1.826-1.348c.624.072.819.792.434,1.608a2.141,2.141,0,0,1-1.825,1.348C1422.851,1815.5,1422.657,1814.777,1423.041,1813.961Z" fill="#b9b19c"/><path d="M1423.128,1799.924c.432-.793,1.249-1.318,1.826-1.174s.693.9.26,1.695-1.249,1.318-1.825,1.174S1422.7,1800.716,1423.128,1799.924Z" fill="#b9b19c"/><path d="M1423.65,1715.7c.72-.648,1.537-.707,1.825-.131a2.134,2.134,0,0,1-.782,2.217c-.72.648-1.538.707-1.826.131A2.133,2.133,0,0,1,1423.65,1715.7Z" fill="#b9b19c"/><path d="M1423.736,1701.664c.769-.625,1.586-.6,1.826.043a2.36,2.36,0,0,1-.956,2.3c-.768.624-1.586.6-1.826-.043A2.359,2.359,0,0,1,1423.736,1701.664Z" fill="#b9b19c"/><path d="M1423.823,1687.626c.817-.6,1.634-.5,1.826.218a2.586,2.586,0,0,1-1.13,2.391c-.816.6-1.634.5-1.826-.218A2.586,2.586,0,0,1,1423.823,1687.626Z" fill="#b9b19c"/><path d="M1423.91,1673.589c.865-.576,1.682-.4,1.826.391a2.806,2.806,0,0,1-1.3,2.478c-.864.576-1.682.4-1.826-.391A2.808,2.808,0,0,1,1423.91,1673.589Z" fill="#b9b19c"/><path d="M1424,1659.552c.913-.552,1.73-.3,1.826.565a3.022,3.022,0,0,1-1.478,2.565c-.912.552-1.73.3-1.825-.565A3.023,3.023,0,0,1,1424,1659.552Z" fill="#b9b19c"/></g><g transform="translate(0 -1193.157)"><path d="M1279.757,1618.758A10.458,10.458,0,1,1,1269.3,1608.3,10.458,10.458,0,0,1,1279.757,1618.758Z" fill="#b9b19c" opacity="0.7" style="mix-blend-mode:screen;isolation:isolate"/><circle cx="5.23" cy="5.23" r="5.23" transform="translate(1316.865 1646.483)" fill="#b9b19c" style="mix-blend-mode:screen;isolation:isolate"/><path d="M1398.162,1596.294a5.229,5.229,0,1,1-5.229-5.229A5.229,5.229,0,0,1,1398.162,1596.294Z" fill="#b9b19c" opacity="0.7" style="mix-blend-mode:screen;isolation:isolate"/><path d="M1370.2,1636.9a8.555,8.555,0,1,1-8.555-8.556A8.555,8.555,0,0,1,1370.2,1636.9Z" fill="#b9b19c" opacity="0.7" style="mix-blend-mode:screen;isolation:isolate"/><circle cx="5.229" cy="5.229" r="5.229" transform="translate(1342.635 1663.882)" fill="#b9b19c" opacity="0.7" style="mix-blend-mode:screen;isolation:isolate"/><circle cx="5.229" cy="5.229" r="5.229" transform="translate(1241.372 1685.16)" fill="#b9b19c" opacity="0.7" style="mix-blend-mode:screen;isolation:isolate"/><path d="M1363.553,1566.779a10.459,10.459,0,1,1-10.459-10.46A10.459,10.459,0,0,1,1363.553,1566.779Z" fill="#b9b19c" style="mix-blend-mode:screen;isolation:isolate"/><path d="M1306.014,1689.15a5.783,5.783,0,1,1-5.783-5.782A5.783,5.783,0,0,1,1306.014,1689.15Z" fill="#b9b19c" style="mix-blend-mode:screen;isolation:isolate"/></g></g></svg>