<svg xmlns="http://www.w3.org/2000/svg" width="268.514" height="487.73"><g data-name="Group 140"><g data-name="Group 121"><g data-name="Group 120" fill="#b7b677"><g data-name="Group 115"><path data-name="Path 551" d="M78.646 283.794a3.438 3.438 0 0 1-1.826 2.739c-1.008.5-1.826.095-1.826-.914a3.435 3.435 0 0 1 1.826-2.738c1.008-.504 1.826-.095 1.826.913Z"/><path data-name="Path 552" d="M75.081 271.583a3.305 3.305 0 0 1 1.826-2.565c.96-.433 1.7.015 1.652 1a3.3 3.3 0 0 1-1.826 2.565c-.96.431-1.7-.016-1.652-1Z"/><path data-name="Path 553" d="M75.168 257.546a3.171 3.171 0 0 1 1.826-2.392c.912-.36 1.574.126 1.478 1.087a3.167 3.167 0 0 1-1.826 2.391c-.912.36-1.574-.126-1.478-1.086Z"/><path data-name="Path 554" d="M75.255 243.508a3.022 3.022 0 0 1 1.826-2.217c.864-.288 1.448.237 1.3 1.174a3.022 3.022 0 0 1-1.826 2.217c-.86.288-1.444-.238-1.3-1.174Z"/><path data-name="Path 555" d="M75.342 229.471a2.866 2.866 0 0 1 1.826-2.043c.816-.216 1.322.348 1.13 1.26a2.866 2.866 0 0 1-1.826 2.044c-.816.216-1.322-.349-1.13-1.261Z"/><path data-name="Path 556" d="M75.429 215.434a2.7 2.7 0 0 1 1.826-1.87c.768-.143 1.2.46.956 1.348a2.7 2.7 0 0 1-1.825 1.869c-.769.145-1.197-.459-.957-1.347Z"/></g><g data-name="Group 116"><path data-name="Path 557" d="M59.897 293.17a3.437 3.437 0 0 1-1.825 2.739c-1.009.5-1.826.1-1.826-.913a3.435 3.435 0 0 1 1.826-2.739c1.008-.504 1.825-.095 1.825.913Z"/><path data-name="Path 558" d="M56.333 280.959a3.3 3.3 0 0 1 1.825-2.565c.961-.432 1.7.015 1.652 1a3.3 3.3 0 0 1-1.826 2.564c-.961.433-1.7-.015-1.651-.999Z"/><path data-name="Path 559" d="M56.423 266.922a3.168 3.168 0 0 1 1.825-2.391c.913-.361 1.575.126 1.478 1.086a3.166 3.166 0 0 1-1.825 2.391c-.916.361-1.578-.126-1.478-1.086Z"/><path data-name="Path 560" d="M56.506 252.885a3.023 3.023 0 0 1 1.826-2.217c.864-.289 1.448.237 1.3 1.173a3.021 3.021 0 0 1-1.826 2.217c-.86.288-1.444-.237-1.3-1.173Z"/><path data-name="Path 561" d="M56.594 238.847a2.865 2.865 0 0 1 1.825-2.043c.817-.216 1.323.348 1.13 1.261a2.865 2.865 0 0 1-1.825 2.043c-.816.216-1.323-.348-1.13-1.261Z"/><path data-name="Path 562" d="M56.68 224.81a2.7 2.7 0 0 1 1.826-1.869c.768-.144 1.2.459.957 1.347a2.7 2.7 0 0 1-1.826 1.87c-.769.142-1.196-.458-.957-1.348Z"/><path data-name="Path 563" d="M56.768 210.773a2.52 2.52 0 0 1 1.825-1.7c.72-.072 1.071.57.783 1.434a2.52 2.52 0 0 1-1.826 1.7c-.72.072-1.071-.57-.782-1.434Z"/><path data-name="Path 564" d="M56.854 196.736a2.336 2.336 0 0 1 1.826-1.522c.672 0 .945.681.609 1.522a2.334 2.334 0 0 1-1.826 1.521c-.672 0-.945-.681-.609-1.521Z"/><path data-name="Path 565" d="M56.941 182.7a2.142 2.142 0 0 1 1.826-1.348c.624.072.819.792.435 1.608a2.142 2.142 0 0 1-1.826 1.348c-.624-.073-.819-.793-.435-1.608Z"/><path data-name="Path 566" d="M57.028 168.662c.432-.793 1.25-1.318 1.826-1.174s.693.9.261 1.7-1.25 1.318-1.826 1.174-.693-.908-.261-1.7Z"/><path data-name="Path 567" d="M57.115 154.625c.48-.769 1.3-1.217 1.826-1s.567 1.013.087 1.782-1.3 1.216-1.826 1-.567-1.014-.087-1.782Z"/><path data-name="Path 568" d="M57.202 140.587c.528-.744 1.346-1.114 1.826-.826s.441 1.125-.087 1.869-1.346 1.114-1.826.827-.441-1.126.087-1.87Z"/><path data-name="Path 569" d="M57.289 126.55c.576-.72 1.394-1.012 1.826-.652s.315 1.236-.261 1.956-1.394 1.012-1.826.653-.315-1.237.261-1.957Z"/><path data-name="Path 570" d="M57.376 112.513c.624-.7 1.442-.91 1.826-.478s.189 1.346-.435 2.043-1.442.91-1.826.478-.189-1.347.435-2.043Z"/><path data-name="Path 571" d="M57.463 98.476c.672-.672 1.49-.809 1.826-.305a1.913 1.913 0 0 1-.609 2.13c-.672.673-1.49.809-1.826.3a1.913 1.913 0 0 1 .609-2.125Z"/><path data-name="Path 572" d="M57.55 84.439c.72-.648 1.538-.707 1.826-.131a2.135 2.135 0 0 1-.783 2.217c-.72.649-1.537.707-1.825.131a2.133 2.133 0 0 1 .782-2.217Z"/><path data-name="Path 573" d="M57.637 70.4c.768-.624 1.585-.6 1.826.044a2.361 2.361 0 0 1-.957 2.3c-.768.624-1.585.605-1.826-.043a2.362 2.362 0 0 1 .957-2.301Z"/><path data-name="Path 574" d="M57.723 56.364c.816-.6 1.633-.5 1.825.218a2.579 2.579 0 0 1-1.13 2.39c-.816.6-1.633.5-1.825-.217a2.584 2.584 0 0 1 1.13-2.391Z"/><path data-name="Path 575" d="M57.81 42.327c.865-.576 1.682-.4 1.826.391a2.806 2.806 0 0 1-1.3 2.478c-.864.576-1.681.4-1.826-.391a2.806 2.806 0 0 1 1.3-2.478Z"/><path data-name="Path 576" d="M57.898 28.29c.912-.552 1.729-.3 1.825.565a3.018 3.018 0 0 1-1.478 2.565c-.912.552-1.729.3-1.825-.565a3.021 3.021 0 0 1 1.478-2.565Z"/><path data-name="Path 577" d="M57.984 14.253c.961-.528 1.778-.2 1.826.739a3.232 3.232 0 0 1-1.652 2.652c-.96.528-1.777.2-1.825-.739a3.228 3.228 0 0 1 1.651-2.652Z"/><path data-name="Path 578" d="M59.897 1.128a3.434 3.434 0 0 1-1.825 2.739c-1.009.5-1.826.1-1.826-.912A3.433 3.433 0 0 1 58.072.216c1.008-.505 1.825-.096 1.825.912Z"/></g><g data-name="Group 117"><path data-name="Path 579" d="M41.149 302.546a3.435 3.435 0 0 1-1.826 2.739c-1.008.5-1.826.1-1.826-.913a3.438 3.438 0 0 1 1.826-2.739c1.008-.504 1.826-.095 1.826.913Z"/><path data-name="Path 580" d="M37.584 290.335a3.307 3.307 0 0 1 1.826-2.565c.96-.432 1.7.016 1.652 1a3.307 3.307 0 0 1-1.826 2.565c-.96.432-1.7-.016-1.652-1Z"/><path data-name="Path 581" d="M37.671 276.3a3.169 3.169 0 0 1 1.826-2.391c.912-.36 1.574.126 1.478 1.087a3.168 3.168 0 0 1-1.826 2.39c-.912.359-1.574-.128-1.478-1.086Z"/><path data-name="Path 582" d="M37.758 262.261a3.021 3.021 0 0 1 1.826-2.217c.864-.288 1.448.237 1.3 1.173a3.021 3.021 0 0 1-1.826 2.217c-.86.289-1.444-.234-1.3-1.173Z"/><path data-name="Path 583" d="M37.845 248.224a2.864 2.864 0 0 1 1.826-2.043c.816-.217 1.322.348 1.13 1.26a2.866 2.866 0 0 1-1.826 2.043c-.816.216-1.322-.348-1.13-1.26Z"/><path data-name="Path 584" d="M37.932 234.187a2.7 2.7 0 0 1 1.826-1.87c.768-.144 1.2.459.956 1.348a2.7 2.7 0 0 1-1.826 1.869c-.765.144-1.196-.459-.956-1.347Z"/><path data-name="Path 585" d="M38.023 220.15a2.519 2.519 0 0 1 1.826-1.7c.72-.072 1.07.57.782 1.434a2.521 2.521 0 0 1-1.826 1.7c-.724.072-1.074-.57-.782-1.434Z"/><path data-name="Path 586" d="M38.106 206.112a2.333 2.333 0 0 1 1.825-1.521c.672 0 .945.681.609 1.521a2.334 2.334 0 0 1-1.826 1.522c-.672 0-.944-.681-.608-1.522Z"/><path data-name="Path 587" d="M38.192 192.075a2.147 2.147 0 0 1 1.826-1.348c.625.072.819.792.435 1.609a2.142 2.142 0 0 1-1.826 1.347c-.624-.071-.818-.792-.435-1.608Z"/><path data-name="Path 588" d="M38.28 178.038c.432-.792 1.249-1.318 1.825-1.174s.693.9.261 1.695-1.249 1.318-1.826 1.174-.693-.903-.26-1.695Z"/><path data-name="Path 589" d="M38.366 164c.481-.769 1.3-1.216 1.826-1s.567 1.014.087 1.782-1.3 1.216-1.825 1-.567-1.013-.088-1.782Z"/><path data-name="Path 590" d="M38.454 149.964c.528-.745 1.345-1.114 1.825-.827s.441 1.126-.087 1.87-1.345 1.114-1.826.826-.443-1.125.088-1.869Z"/><path data-name="Path 591" d="M38.54 135.927c.577-.721 1.394-1.013 1.826-.653s.315 1.236-.261 1.956-1.393 1.013-1.825.652-.316-1.235.26-1.955Z"/><path data-name="Path 592" d="M38.623 121.889c.624-.7 1.442-.91 1.826-.478s.19 1.347-.435 2.043-1.441.911-1.826.478-.185-1.346.435-2.043Z"/><path data-name="Path 593" d="M38.714 107.852c.673-.672 1.49-.808 1.826-.3a1.913 1.913 0 0 1-.609 2.13c-.672.672-1.489.808-1.825.3a1.913 1.913 0 0 1 .608-2.13Z"/><path data-name="Path 594" d="M38.801 93.815c.72-.648 1.538-.707 1.826-.13a2.135 2.135 0 0 1-.782 2.217c-.721.648-1.538.706-1.826.13a2.134 2.134 0 0 1 .782-2.217Z"/><path data-name="Path 595" d="M38.888 79.778c.769-.624 1.586-.605 1.826.043a2.36 2.36 0 0 1-.956 2.3c-.769.625-1.586.605-1.826-.043a2.36 2.36 0 0 1 .956-2.3Z"/><path data-name="Path 596" d="M38.975 65.741c.816-.6 1.634-.5 1.826.217a2.585 2.585 0 0 1-1.13 2.391c-.817.6-1.634.5-1.826-.217a2.584 2.584 0 0 1 1.13-2.391Z"/></g><g data-name="Group 118"><path data-name="Path 597" d="M22.4 311.922a3.433 3.433 0 0 1-1.826 2.739c-1.008.505-1.826.1-1.826-.912a3.435 3.435 0 0 1 1.826-2.739c1.009-.504 1.826-.096 1.826.912Z"/><path data-name="Path 598" d="M18.835 299.712a3.307 3.307 0 0 1 1.826-2.565c.961-.433 1.7.015 1.652 1a3.3 3.3 0 0 1-1.826 2.565c-.964.431-1.7-.012-1.652-1Z"/><path data-name="Path 599" d="M18.923 285.674a3.17 3.17 0 0 1 1.826-2.391c.912-.36 1.574.127 1.478 1.087a3.169 3.169 0 0 1-1.826 2.391c-.913.36-1.578-.126-1.478-1.087Z"/><path data-name="Path 600" d="M19.009 271.637a3.025 3.025 0 0 1 1.826-2.217c.864-.288 1.448.237 1.3 1.174a3.022 3.022 0 0 1-1.826 2.217c-.86.289-1.444-.237-1.3-1.174Z"/><path data-name="Path 601" d="M19.096 257.6a2.866 2.866 0 0 1 1.826-2.043c.816-.216 1.322.348 1.13 1.261a2.862 2.862 0 0 1-1.825 2.042c-.817.217-1.323-.348-1.131-1.26Z"/><path data-name="Path 602" d="M19.444 201.452a2.142 2.142 0 0 1 1.826-1.348c.624.072.819.792.434 1.608a2.14 2.14 0 0 1-1.825 1.348c-.625-.072-.819-.792-.435-1.608Z"/><path data-name="Path 603" d="M19.531 187.414c.432-.792 1.249-1.318 1.826-1.173s.693.9.26 1.7-1.249 1.318-1.825 1.174-.693-.908-.261-1.701Z"/><path data-name="Path 604" d="M19.618 173.377c.48-.768 1.3-1.216 1.826-1s.567 1.014.087 1.783-1.3 1.215-1.826 1-.567-1.015-.087-1.783Z"/><path data-name="Path 605" d="M19.705 159.34c.528-.744 1.345-1.114 1.826-.826s.441 1.125-.087 1.869-1.346 1.114-1.826.826-.441-1.125.087-1.869Z"/><path data-name="Path 606" d="M19.792 145.3c.576-.72 1.393-1.013 1.825-.652s.316 1.235-.26 1.956-1.394 1.012-1.826.652-.315-1.233.261-1.956Z"/><path data-name="Path 607" d="M19.879 131.266c.624-.7 1.442-.911 1.825-.479s.19 1.347-.434 2.043-1.442.911-1.826.479-.19-1.347.435-2.043Z"/><path data-name="Path 608" d="M19.966 117.229c.672-.673 1.489-.809 1.825-.3a1.913 1.913 0 0 1-.608 2.13c-.672.672-1.49.809-1.826.3a1.911 1.911 0 0 1 .609-2.13Z"/><path data-name="Path 609" d="M20.053 103.191c.72-.648 1.537-.706 1.825-.13a2.134 2.134 0 0 1-.782 2.217c-.72.648-1.538.707-1.826.13a2.134 2.134 0 0 1 .783-2.217Z"/><path data-name="Path 610" d="M20.14 89.154c.768-.624 1.585-.6 1.825.044a2.357 2.357 0 0 1-.956 2.3c-.768.625-1.586.6-1.826-.043a2.359 2.359 0 0 1 .957-2.301Z"/><path data-name="Path 611" d="M20.223 75.117c.816-.6 1.633-.5 1.825.217a2.585 2.585 0 0 1-1.13 2.391c-.816.6-1.634.5-1.826-.217a2.584 2.584 0 0 1 1.131-2.391Z"/><path data-name="Path 612" d="M20.487 33.006c.961-.529 1.778-.2 1.826.738a3.229 3.229 0 0 1-1.652 2.652c-.96.529-1.777.2-1.826-.739a3.232 3.232 0 0 1 1.652-2.651Z"/><path data-name="Path 613" d="M22.4 19.881a3.434 3.434 0 0 1-1.826 2.739c-1.008.5-1.826.1-1.826-.913a3.435 3.435 0 0 1 1.826-2.738c1.009-.505 1.826-.096 1.826.912Z"/></g><g data-name="Group 119"><path data-name="Path 614" d="M3.651 321.3a3.436 3.436 0 0 1-1.826 2.739c-1.008.5-1.825.095-1.825-.913a3.437 3.437 0 0 1 1.825-2.739c1.009-.505 1.826-.096 1.826.913Z"/><path data-name="Path 615" d="M.087 309.088a3.3 3.3 0 0 1 1.826-2.565c.96-.432 1.7.015 1.651 1a3.305 3.305 0 0 1-1.825 2.565c-.961.432-1.7-.016-1.652-1Z"/><path data-name="Path 616" d="M.174 295.051a3.166 3.166 0 0 1 1.825-2.391c.913-.36 1.574.126 1.478 1.086a3.164 3.164 0 0 1-1.825 2.391c-.912.363-1.574-.126-1.478-1.086Z"/><path data-name="Path 617" d="M.348 266.976a2.865 2.865 0 0 1 1.825-2.043c.817-.216 1.323.348 1.131 1.261a2.866 2.866 0 0 1-1.826 2.043c-.817.216-1.322-.348-1.13-1.261Z"/><path data-name="Path 618" d="M.435 252.939a2.7 2.7 0 0 1 1.825-1.869c.769-.144 1.2.459.957 1.347a2.7 2.7 0 0 1-1.826 1.87c-.768.144-1.197-.46-.956-1.348Z"/><path data-name="Path 619" d="M.523 238.9a2.524 2.524 0 0 1 1.826-1.7c.72-.072 1.071.571.783 1.435a2.521 2.521 0 0 1-1.826 1.7c-.722.074-1.072-.569-.783-1.435Z"/><path data-name="Path 620" d="M.609 224.865a2.334 2.334 0 0 1 1.825-1.522c.672 0 .945.681.609 1.522a2.335 2.335 0 0 1-1.826 1.521c-.672 0-.945-.686-.608-1.521Z"/><path data-name="Path 621" d="M.695 210.828a2.144 2.144 0 0 1 1.828-1.348c.624.072.819.792.435 1.608a2.142 2.142 0 0 1-1.826 1.348c-.626-.072-.821-.792-.437-1.608Z"/><path data-name="Path 622" d="M.783 196.791c.432-.793 1.249-1.318 1.825-1.174s.693.9.261 1.7-1.25 1.318-1.826 1.174-.693-.908-.26-1.7Z"/><path data-name="Path 623" d="M1.304 112.568c.72-.648 1.538-.707 1.826-.131a2.135 2.135 0 0 1-.783 2.217c-.72.648-1.538.707-1.826.131a2.137 2.137 0 0 1 .783-2.217Z"/><path data-name="Path 624" d="M1.391 98.531c.768-.625 1.585-.605 1.826.043a2.359 2.359 0 0 1-.957 2.3c-.768.624-1.585.605-1.825-.044a2.356 2.356 0 0 1 .956-2.299Z"/><path data-name="Path 625" d="M1.478 84.493c.816-.6 1.634-.5 1.826.218a2.582 2.582 0 0 1-1.131 2.39c-.816.6-1.633.5-1.825-.217a2.584 2.584 0 0 1 1.13-2.391Z"/><path data-name="Path 626" d="M1.565 70.456c.864-.576 1.682-.4 1.826.391a2.806 2.806 0 0 1-1.305 2.478c-.864.576-1.681.4-1.825-.391a2.807 2.807 0 0 1 1.304-2.478Z"/><path data-name="Path 627" d="M1.652 56.419c.912-.552 1.73-.3 1.825.565a3.022 3.022 0 0 1-1.478 2.565c-.912.552-1.729.3-1.825-.565a3.023 3.023 0 0 1 1.478-2.565Z"/></g></g></g><g data-name="Group 128"><g data-name="Group 127" fill="#b9b19c"><g data-name="Group 122"><path data-name="Path 628" d="M268.514 447.27a3.434 3.434 0 0 1-1.825 2.738c-1.008.5-1.826.1-1.826-.913a3.435 3.435 0 0 1 1.826-2.738c1.008-.504 1.825-.096 1.825.913Z"/><path data-name="Path 629" d="M264.95 435.058a3.3 3.3 0 0 1 1.826-2.564c.96-.433 1.7.015 1.652 1a3.307 3.307 0 0 1-1.826 2.565c-.961.431-1.7-.016-1.652-1.001Z"/><path data-name="Path 630" d="M265.037 421.021a3.167 3.167 0 0 1 1.826-2.391c.912-.36 1.574.126 1.478 1.087a3.169 3.169 0 0 1-1.826 2.391c-.913.36-1.574-.126-1.478-1.087Z"/><path data-name="Path 631" d="M265.123 406.984a3.021 3.021 0 0 1 1.826-2.217c.864-.288 1.448.237 1.3 1.174a3.024 3.024 0 0 1-1.826 2.217c-.859.288-1.443-.238-1.3-1.174Z"/><path data-name="Path 632" d="M265.211 392.947a2.865 2.865 0 0 1 1.825-2.043c.817-.216 1.323.348 1.131 1.26a2.869 2.869 0 0 1-1.826 2.044c-.818.216-1.318-.349-1.13-1.261Z"/><path data-name="Path 633" d="M265.298 378.91a2.7 2.7 0 0 1 1.825-1.87c.769-.144 1.2.459.957 1.348a2.7 2.7 0 0 1-1.826 1.869c-.768.143-1.196-.457-.956-1.347Z"/></g><g data-name="Group 123"><path data-name="Path 634" d="M249.766 456.646a3.433 3.433 0 0 1-1.826 2.738c-1.008.505-1.826.1-1.826-.912a3.437 3.437 0 0 1 1.826-2.739c1.009-.504 1.826-.095 1.826.913Z"/><path data-name="Path 635" d="M246.201 444.435a3.305 3.305 0 0 1 1.826-2.565c.96-.432 1.7.015 1.652 1a3.305 3.305 0 0 1-1.826 2.565c-.96.432-1.7-.016-1.652-1Z"/><path data-name="Path 636" d="M246.288 430.4a3.169 3.169 0 0 1 1.826-2.391c.912-.361 1.574.126 1.478 1.086a3.167 3.167 0 0 1-1.826 2.391c-.912.358-1.574-.128-1.478-1.086Z"/><path data-name="Path 637" d="M246.375 416.361a3.022 3.022 0 0 1 1.826-2.218c.864-.288 1.448.238 1.3 1.174a3.023 3.023 0 0 1-1.826 2.217c-.86.288-1.444-.234-1.3-1.173Z"/><path data-name="Path 638" d="M246.462 402.323a2.866 2.866 0 0 1 1.826-2.043c.816-.216 1.322.348 1.13 1.261a2.864 2.864 0 0 1-1.826 2.043c-.816.216-1.322-.349-1.13-1.261Z"/><path data-name="Path 639" d="M246.549 388.286a2.7 2.7 0 0 1 1.826-1.869c.768-.144 1.2.459.956 1.347a2.693 2.693 0 0 1-1.826 1.869c-.768.145-1.196-.459-.956-1.347Z"/><path data-name="Path 640" d="M246.636 374.249a2.521 2.521 0 0 1 1.826-1.7c.72-.073 1.07.57.782 1.434a2.519 2.519 0 0 1-1.826 1.7c-.72.072-1.07-.57-.782-1.434Z"/><path data-name="Path 641" d="M246.723 360.212a2.335 2.335 0 0 1 1.825-1.522c.673 0 .945.681.609 1.521a2.333 2.333 0 0 1-1.825 1.522c-.673 0-.945-.681-.609-1.521Z"/><path data-name="Path 642" d="M246.81 346.175a2.141 2.141 0 0 1 1.826-1.348c.624.072.818.792.434 1.608a2.141 2.141 0 0 1-1.826 1.348c-.621-.072-.821-.792-.434-1.608Z"/><path data-name="Path 643" d="M246.897 332.137c.432-.792 1.249-1.317 1.826-1.173s.693.9.26 1.7-1.249 1.318-1.825 1.174-.693-.908-.261-1.701Z"/><path data-name="Path 644" d="M246.984 318.1c.48-.768 1.3-1.216 1.826-1s.567 1.014.086 1.783-1.3 1.216-1.825 1-.567-1.015-.087-1.783Z"/><path data-name="Path 645" d="M247.071 304.063c.528-.744 1.345-1.114 1.825-.826s.442 1.125-.086 1.869-1.346 1.114-1.826.827-.442-1.126.087-1.87Z"/><path data-name="Path 646" d="M247.158 290.026c.576-.72 1.393-1.012 1.825-.652s.316 1.236-.26 1.956-1.394 1.012-1.826.652-.316-1.236.261-1.956Z"/><path data-name="Path 647" d="M247.244 275.989c.625-.7 1.442-.911 1.826-.479s.19 1.347-.434 2.044-1.442.91-1.826.478-.187-1.347.434-2.043Z"/><path data-name="Path 648" d="M247.332 261.952c.672-.673 1.489-.809 1.825-.3a1.912 1.912 0 0 1-.609 2.13c-.672.673-1.489.809-1.825.3a1.912 1.912 0 0 1 .609-2.13Z"/><path data-name="Path 649" d="M247.423 247.915c.721-.649 1.538-.707 1.826-.131a2.134 2.134 0 0 1-.782 2.217c-.72.648-1.538.707-1.826.131a2.134 2.134 0 0 1 .782-2.217Z"/><path data-name="Path 650" d="M247.505 233.877c.769-.624 1.586-.6 1.826.044a2.361 2.361 0 0 1-.956 2.3c-.769.624-1.586.6-1.826-.043a2.361 2.361 0 0 1 .956-2.301Z"/><path data-name="Path 651" d="M247.592 219.84c.817-.6 1.634-.5 1.826.218a2.583 2.583 0 0 1-1.13 2.39c-.816.6-1.634.5-1.826-.217a2.585 2.585 0 0 1 1.13-2.391Z"/><path data-name="Path 652" d="M247.679 205.8c.864-.576 1.682-.4 1.826.391a2.807 2.807 0 0 1-1.3 2.478c-.865.576-1.682.4-1.826-.391a2.806 2.806 0 0 1 1.3-2.478Z"/><path data-name="Path 653" d="M247.766 191.766c.913-.552 1.73-.3 1.826.565a3.024 3.024 0 0 1-1.478 2.565c-.912.552-1.73.3-1.826-.565a3.023 3.023 0 0 1 1.478-2.565Z"/><path data-name="Path 654" d="M247.853 177.729c.96-.529 1.778-.2 1.826.739a3.232 3.232 0 0 1-1.652 2.651c-.96.529-1.778.2-1.826-.738a3.232 3.232 0 0 1 1.652-2.652Z"/><path data-name="Path 655" d="M249.766 164.6a3.433 3.433 0 0 1-1.826 2.739c-1.008.5-1.826.1-1.826-.912a3.436 3.436 0 0 1 1.826-2.739c1.009-.501 1.826-.088 1.826.912Z"/></g><g data-name="Group 124"><path data-name="Path 656" d="M231.017 466.022a3.433 3.433 0 0 1-1.826 2.739c-1.008.5-1.825.1-1.825-.913a3.437 3.437 0 0 1 1.825-2.739c1.009-.509 1.826-.095 1.826.913Z"/><path data-name="Path 657" d="M227.453 453.811a3.306 3.306 0 0 1 1.825-2.565c.961-.432 1.7.016 1.652 1a3.3 3.3 0 0 1-1.826 2.565c-.96.432-1.699-.016-1.651-1Z"/><path data-name="Path 658" d="M227.54 439.774a3.166 3.166 0 0 1 1.825-2.391c.913-.36 1.574.126 1.478 1.086a3.166 3.166 0 0 1-1.825 2.391c-.913.361-1.574-.126-1.478-1.086Z"/><path data-name="Path 659" d="M227.623 425.737a3.025 3.025 0 0 1 1.826-2.217c.864-.289 1.448.237 1.3 1.173a3.021 3.021 0 0 1-1.825 2.217c-.858.29-1.441-.237-1.301-1.173Z"/><path data-name="Path 660" d="M227.714 411.7a2.863 2.863 0 0 1 1.825-2.043c.817-.216 1.323.349 1.13 1.261a2.865 2.865 0 0 1-1.825 2.043c-.816.215-1.321-.349-1.13-1.261Z"/><path data-name="Path 661" d="M227.8 397.663a2.7 2.7 0 0 1 1.826-1.87c.768-.144 1.2.459.956 1.348a2.7 2.7 0 0 1-1.825 1.869c-.769.144-1.197-.459-.957-1.347Z"/><path data-name="Path 662" d="M227.887 383.626a2.521 2.521 0 0 1 1.826-1.7c.72-.072 1.071.57.783 1.434a2.523 2.523 0 0 1-1.826 1.7c-.72.072-1.071-.57-.783-1.434Z"/><path data-name="Path 663" d="M227.974 369.588a2.334 2.334 0 0 1 1.826-1.521c.672 0 .945.681.609 1.521a2.336 2.336 0 0 1-1.826 1.521c-.672.001-.945-.681-.609-1.521Z"/><path data-name="Path 664" d="M228.061 355.551a2.145 2.145 0 0 1 1.826-1.348c.624.072.819.792.435 1.609a2.142 2.142 0 0 1-1.826 1.347c-.624-.072-.819-.792-.435-1.608Z"/><path data-name="Path 665" d="M228.148 341.514c.432-.792 1.25-1.318 1.826-1.174s.693.9.261 1.695-1.25 1.318-1.826 1.174-.693-.903-.261-1.695Z"/><path data-name="Path 666" d="M228.235 327.477c.48-.769 1.3-1.216 1.826-1s.567 1.014.087 1.782-1.3 1.216-1.826 1-.567-1.014-.087-1.782Z"/><path data-name="Path 667" d="M228.323 313.439c.528-.744 1.346-1.114 1.826-.826s.441 1.125-.087 1.869-1.346 1.115-1.826.827-.442-1.125.087-1.87Z"/><path data-name="Path 668" d="M228.409 299.4c.576-.72 1.394-1.012 1.826-.652s.315 1.236-.261 1.956-1.394 1.013-1.826.652-.315-1.233.261-1.956Z"/><path data-name="Path 669" d="M228.496 285.365c.624-.7 1.442-.91 1.826-.478s.189 1.347-.435 2.043-1.441.911-1.826.478-.189-1.347.435-2.043Z"/><path data-name="Path 670" d="M228.583 271.328c.672-.672 1.489-.809 1.826-.3a1.915 1.915 0 0 1-.609 2.131c-.672.672-1.49.808-1.826.3a1.913 1.913 0 0 1 .609-2.131Z"/><path data-name="Path 671" d="M228.67 257.291c.72-.648 1.537-.707 1.826-.131a2.135 2.135 0 0 1-.783 2.217c-.72.649-1.538.707-1.826.131a2.135 2.135 0 0 1 .783-2.217Z"/><path data-name="Path 672" d="M228.757 243.254c.768-.624 1.585-.605 1.825.043a2.358 2.358 0 0 1-.956 2.3c-.768.624-1.586.6-1.826-.043a2.359 2.359 0 0 1 .957-2.3Z"/><path data-name="Path 673" d="M228.844 229.217c.816-.6 1.633-.5 1.825.217a2.582 2.582 0 0 1-1.13 2.391c-.816.6-1.634.5-1.825-.217a2.582 2.582 0 0 1 1.13-2.391Z"/></g><g data-name="Group 125"><path data-name="Path 674" d="M212.269 475.4a3.436 3.436 0 0 1-1.826 2.739c-1.009.505-1.826.1-1.826-.912a3.433 3.433 0 0 1 1.826-2.739c1.008-.506 1.826-.098 1.826.912Z"/><path data-name="Path 675" d="M208.704 463.188a3.3 3.3 0 0 1 1.826-2.565c.96-.433 1.7.015 1.652 1a3.308 3.308 0 0 1-1.826 2.565c-.96.431-1.7-.016-1.652-1Z"/><path data-name="Path 676" d="M208.791 449.15a3.167 3.167 0 0 1 1.826-2.391c.912-.36 1.574.127 1.478 1.087a3.169 3.169 0 0 1-1.826 2.391c-.912.363-1.574-.126-1.478-1.087Z"/><path data-name="Path 677" d="M208.878 435.113a3.021 3.021 0 0 1 1.826-2.217c.864-.288 1.448.237 1.3 1.174a3.025 3.025 0 0 1-1.826 2.217c-.855.288-1.444-.238-1.3-1.174Z"/><path data-name="Path 678" d="M208.965 421.076a2.864 2.864 0 0 1 1.826-2.043c.816-.217 1.322.348 1.13 1.26a2.864 2.864 0 0 1-1.826 2.043c-.816.217-1.322-.348-1.13-1.26Z"/><path data-name="Path 679" d="M209.313 364.927a2.141 2.141 0 0 1 1.825-1.347c.625.072.819.792.435 1.608a2.144 2.144 0 0 1-1.826 1.348c-.624-.072-.819-.792-.434-1.609Z"/><path data-name="Path 680" d="M209.4 350.89c.432-.792 1.249-1.318 1.825-1.174s.693.9.261 1.7-1.249 1.317-1.826 1.173-.693-.907-.26-1.699Z"/><path data-name="Path 681" d="M209.487 336.853c.48-.768 1.3-1.216 1.825-1s.567 1.014.087 1.782-1.3 1.216-1.825 1-.568-1.014-.087-1.782Z"/><path data-name="Path 682" d="M209.574 322.816c.528-.745 1.345-1.114 1.825-.826s.441 1.125-.087 1.869-1.345 1.114-1.825.826-.442-1.125.087-1.869Z"/><path data-name="Path 683" d="M209.66 308.779c.577-.721 1.394-1.013 1.826-.652s.315 1.235-.261 1.956-1.393 1.012-1.825.652-.316-1.235.26-1.956Z"/><path data-name="Path 684" d="M209.747 294.741c.624-.7 1.442-.91 1.826-.478s.19 1.347-.435 2.043-1.441.911-1.825.479-.19-1.347.434-2.044Z"/><path data-name="Path 685" d="M209.834 280.7c.673-.672 1.49-.808 1.826-.3a1.913 1.913 0 0 1-.609 2.13c-.672.672-1.489.809-1.825.3a1.913 1.913 0 0 1 .608-2.13Z"/><path data-name="Path 686" d="M209.923 266.667c.72-.648 1.538-.706 1.826-.13a2.134 2.134 0 0 1-.783 2.217c-.72.648-1.537.706-1.825.13a2.135 2.135 0 0 1 .782-2.217Z"/><path data-name="Path 687" d="M210.008 252.63c.768-.624 1.586-.605 1.826.043a2.36 2.36 0 0 1-.956 2.3c-.769.625-1.586.605-1.826-.043a2.36 2.36 0 0 1 .956-2.3Z"/><path data-name="Path 688" d="M210.095 238.593c.816-.6 1.634-.5 1.826.217a2.585 2.585 0 0 1-1.13 2.391c-.817.6-1.634.5-1.826-.217a2.585 2.585 0 0 1 1.13-2.391Z"/><path data-name="Path 689" d="M210.356 196.481c.96-.528 1.777-.2 1.826.739a3.232 3.232 0 0 1-1.652 2.652c-.961.528-1.778.2-1.826-.739a3.235 3.235 0 0 1 1.652-2.652Z"/><path data-name="Path 690" d="M212.269 183.357a3.437 3.437 0 0 1-1.826 2.739c-1.009.5-1.826.1-1.826-.913a3.436 3.436 0 0 1 1.826-2.739c1.008-.504 1.826-.095 1.826.913Z"/></g><g data-name="Group 126"><path data-name="Path 691" d="M193.523 484.775a3.436 3.436 0 0 1-1.826 2.739c-1.008.5-1.826.1-1.826-.913a3.438 3.438 0 0 1 1.826-2.739c1.006-.504 1.826-.095 1.826.913Z"/><path data-name="Path 692" d="M189.955 472.564a3.307 3.307 0 0 1 1.826-2.565c.961-.432 1.7.015 1.652 1a3.3 3.3 0 0 1-1.826 2.565c-.96.436-1.7-.016-1.652-1Z"/><path data-name="Path 693" d="M190.043 458.527a3.164 3.164 0 0 1 1.825-2.391c.912-.361 1.574.126 1.478 1.086a3.167 3.167 0 0 1-1.826 2.391c-.912.36-1.573-.126-1.477-1.086Z"/><path data-name="Path 694" d="M190.216 430.452a2.866 2.866 0 0 1 1.826-2.043c.816-.216 1.322.348 1.13 1.261a2.864 2.864 0 0 1-1.826 2.043c-.816.216-1.323-.348-1.13-1.261Z"/><path data-name="Path 695" d="M190.303 416.415a2.7 2.7 0 0 1 1.826-1.869c.768-.144 1.2.459.956 1.347a2.7 2.7 0 0 1-1.826 1.869c-.768.145-1.196-.462-.956-1.347Z"/><path data-name="Path 696" d="M190.39 402.378a2.525 2.525 0 0 1 1.826-1.7c.72-.072 1.07.571.782 1.435a2.52 2.52 0 0 1-1.825 1.7c-.721.072-1.071-.571-.783-1.435Z"/><path data-name="Path 697" d="M190.477 388.341a2.335 2.335 0 0 1 1.826-1.522c.672 0 .944.681.608 1.522a2.333 2.333 0 0 1-1.825 1.521c-.672 0-.945-.681-.609-1.521Z"/><path data-name="Path 698" d="M190.564 374.3a2.142 2.142 0 0 1 1.826-1.348c.624.072.819.792.434 1.608a2.142 2.142 0 0 1-1.825 1.348c-.625-.068-.819-.788-.435-1.608Z"/><path data-name="Path 699" d="M190.651 360.266c.432-.792 1.249-1.317 1.826-1.173s.693.9.26 1.7-1.249 1.318-1.825 1.174-.689-.908-.261-1.701Z"/><path data-name="Path 700" d="M191.173 276.044c.72-.649 1.537-.707 1.825-.131a2.134 2.134 0 0 1-.782 2.217c-.72.648-1.538.707-1.826.13a2.132 2.132 0 0 1 .783-2.216Z"/><path data-name="Path 701" d="M191.259 262.007c.769-.625 1.586-.6 1.826.043a2.36 2.36 0 0 1-.956 2.3c-.768.624-1.586.605-1.826-.044a2.358 2.358 0 0 1 .956-2.299Z"/><path data-name="Path 702" d="M191.346 247.969c.817-.6 1.634-.5 1.826.217a2.584 2.584 0 0 1-1.13 2.391c-.816.6-1.634.5-1.826-.217a2.586 2.586 0 0 1 1.13-2.391Z"/><path data-name="Path 703" d="M191.433 233.932c.865-.576 1.682-.4 1.826.391a2.806 2.806 0 0 1-1.3 2.478c-.864.576-1.682.4-1.826-.391a2.807 2.807 0 0 1 1.3-2.478Z"/><path data-name="Path 704" d="M191.523 219.895c.913-.552 1.73-.3 1.826.565a3.024 3.024 0 0 1-1.478 2.565c-.912.552-1.73.3-1.825-.565a3.022 3.022 0 0 1 1.477-2.565Z"/></g></g></g><g data-name="Group 130"><g data-name="Group 129" fill="#b9b19c" transform="translate(-1232.477 -246.5)"><path data-name="Path 705" d="M1314.688 596.816a6.225 6.225 0 1 1-6.225-6.225 6.225 6.225 0 0 1 6.225 6.225Z" opacity=".7" style="mix-blend-mode:screen;isolation:isolate"/><circle data-name="Ellipse 25" cx="3.113" cy="3.113" r="3.113" transform="translate(1336.774 613.318)" style="mix-blend-mode:screen;isolation:isolate"/><path data-name="Path 706" d="M1385.162 583.445a3.112 3.112 0 1 1-3.113-3.112 3.113 3.113 0 0 1 3.113 3.112Z" opacity=".7" style="mix-blend-mode:screen;isolation:isolate"/><path data-name="Path 707" d="M1368.522 607.611a5.092 5.092 0 1 1-5.092-5.092 5.092 5.092 0 0 1 5.092 5.092Z" opacity=".7" style="mix-blend-mode:screen;isolation:isolate"/><circle data-name="Ellipse 26" cx="3.113" cy="3.113" r="3.113" transform="translate(1352.112 623.674)" opacity=".7" style="mix-blend-mode:screen;isolation:isolate"/><circle data-name="Ellipse 27" cx="3.113" cy="3.113" r="3.113" transform="translate(1291.841 636.338)" opacity=".7" style="mix-blend-mode:screen;isolation:isolate"/><path data-name="Path 708" d="M1364.563 565.878a6.225 6.225 0 1 1-6.226-6.226 6.226 6.226 0 0 1 6.226 6.226Z" style="mix-blend-mode:screen;isolation:isolate"/><path data-name="Path 709" d="M1330.316 638.713a3.442 3.442 0 1 1-3.442-3.441 3.443 3.443 0 0 1 3.442 3.441Z" style="mix-blend-mode:screen;isolation:isolate"/></g></g></g></svg>