<svg xmlns="http://www.w3.org/2000/svg" width="341.425" height="487.73"><g fill="#b7b677"><path d="M341.425 283.794a3.434 3.434 0 0 1-1.825 2.738c-1.009.5-1.826.1-1.826-.913a3.433 3.433 0 0 1 1.826-2.738c1.008-.505 1.825-.096 1.825.913ZM337.859 271.582a3.3 3.3 0 0 1 1.826-2.564c.96-.433 1.7.015 1.651 1a3.3 3.3 0 0 1-1.825 2.565c-.959.431-1.698-.012-1.652-1.001ZM337.948 257.545a3.167 3.167 0 0 1 1.826-2.391c.912-.36 1.574.126 1.477 1.087a3.168 3.168 0 0 1-1.825 2.391c-.913.36-1.574-.126-1.478-1.087ZM338.035 243.508a3.02 3.02 0 0 1 1.826-2.217c.864-.288 1.447.237 1.3 1.173a3.024 3.024 0 0 1-1.826 2.218c-.861.289-1.444-.238-1.3-1.174ZM338.122 229.471a2.865 2.865 0 0 1 1.825-2.043c.817-.217 1.323.348 1.131 1.26a2.868 2.868 0 0 1-1.826 2.043c-.816.216-1.323-.348-1.13-1.26ZM338.208 215.434a2.7 2.7 0 0 1 1.826-1.87c.769-.144 1.2.459.957 1.348a2.7 2.7 0 0 1-1.826 1.869c-.769.144-1.196-.459-.957-1.347ZM322.677 293.171a3.435 3.435 0 0 1-1.826 2.738c-1.008.5-1.826.1-1.826-.912a3.436 3.436 0 0 1 1.826-2.739c1.008-.505 1.826-.096 1.826.913ZM319.112 280.959a3.3 3.3 0 0 1 1.826-2.565c.96-.433 1.7.015 1.652 1a3.306 3.306 0 0 1-1.826 2.565c-.96.431-1.7-.016-1.652-1ZM319.199 266.921a3.17 3.17 0 0 1 1.826-2.391c.912-.36 1.574.127 1.478 1.087a3.169 3.169 0 0 1-1.826 2.391c-.912.363-1.574-.126-1.478-1.087ZM319.286 252.884a3.02 3.02 0 0 1 1.826-2.217c.864-.288 1.448.238 1.3 1.174a3.022 3.022 0 0 1-1.826 2.217c-.86.288-1.444-.238-1.3-1.174ZM319.373 238.847a2.866 2.866 0 0 1 1.826-2.043c.816-.216 1.322.348 1.13 1.26a2.866 2.866 0 0 1-1.826 2.044c-.816.216-1.322-.349-1.13-1.261ZM319.459 224.81a2.7 2.7 0 0 1 1.826-1.869c.768-.144 1.2.459.956 1.347a2.7 2.7 0 0 1-1.826 1.869c-.767.145-1.195-.459-.956-1.347ZM319.547 210.771a2.52 2.52 0 0 1 1.826-1.7c.72-.073 1.07.569.782 1.434a2.521 2.521 0 0 1-1.826 1.7c-.72.074-1.07-.568-.782-1.434ZM319.634 196.736a2.333 2.333 0 0 1 1.825-1.522c.673 0 .945.681.609 1.521a2.333 2.333 0 0 1-1.825 1.522c-.673 0-.945-.686-.609-1.521ZM319.721 182.699a2.141 2.141 0 0 1 1.826-1.348c.624.072.818.792.434 1.608a2.144 2.144 0 0 1-1.826 1.348c-.624-.072-.818-.792-.434-1.608ZM319.808 168.661c.432-.792 1.249-1.318 1.825-1.173s.693.9.261 1.695-1.249 1.318-1.825 1.174-.693-.903-.261-1.696ZM319.894 154.624c.481-.768 1.3-1.216 1.826-1s.568 1.014.087 1.783-1.3 1.215-1.825 1-.567-1.015-.088-1.783ZM319.982 140.587c.528-.744 1.345-1.114 1.825-.826s.441 1.125-.087 1.869-1.345 1.114-1.826.826-.441-1.125.088-1.869ZM320.069 126.55c.576-.72 1.393-1.012 1.825-.652s.316 1.236-.261 1.956-1.393 1.012-1.825.652-.316-1.235.261-1.956ZM320.159 112.513c.624-.7 1.442-.911 1.826-.479s.19 1.347-.434 2.044-1.442.91-1.826.478-.194-1.347.434-2.043ZM320.243 98.471c.672-.673 1.489-.809 1.825-.3a1.912 1.912 0 0 1-.609 2.13c-.672.672-1.489.809-1.825.3a1.912 1.912 0 0 1 .609-2.13ZM320.329 84.439c.72-.649 1.538-.707 1.826-.131a2.134 2.134 0 0 1-.782 2.217c-.721.648-1.538.707-1.826.131a2.134 2.134 0 0 1 .782-2.217ZM320.416 70.401c.769-.624 1.586-.6 1.826.043a2.361 2.361 0 0 1-.956 2.305c-.769.624-1.586.6-1.826-.044a2.36 2.36 0 0 1 .956-2.304ZM320.503 56.364c.817-.6 1.634-.5 1.826.217a2.584 2.584 0 0 1-1.13 2.391c-.816.6-1.634.5-1.826-.217a2.584 2.584 0 0 1 1.13-2.391ZM320.59 42.327c.864-.576 1.682-.4 1.826.391a2.807 2.807 0 0 1-1.3 2.478c-.865.576-1.682.4-1.826-.391a2.807 2.807 0 0 1 1.3-2.478ZM320.677 28.29c.912-.552 1.73-.3 1.826.565a3.024 3.024 0 0 1-1.478 2.565c-.912.552-1.73.3-1.826-.565a3.021 3.021 0 0 1 1.478-2.565ZM320.759 14.253c.96-.529 1.778-.2 1.826.739a3.232 3.232 0 0 1-1.652 2.651c-.96.529-1.778.2-1.826-.738a3.232 3.232 0 0 1 1.652-2.652ZM322.677 1.128a3.437 3.437 0 0 1-1.826 2.739c-1.008.5-1.826.1-1.826-.913a3.435 3.435 0 0 1 1.826-2.738c1.008-.505 1.826-.096 1.826.912ZM303.928 302.546a3.434 3.434 0 0 1-1.826 2.739c-1.008.5-1.825.1-1.825-.913a3.437 3.437 0 0 1 1.825-2.739c1.009-.504 1.826-.095 1.826.913ZM300.359 290.335a3.305 3.305 0 0 1 1.825-2.565c.961-.432 1.7.015 1.652 1a3.306 3.306 0 0 1-1.826 2.565c-.951.436-1.695-.016-1.651-1ZM300.451 276.298a3.164 3.164 0 0 1 1.825-2.391c.913-.36 1.574.126 1.478 1.086a3.167 3.167 0 0 1-1.825 2.391c-.913.361-1.57-.126-1.478-1.086ZM300.537 262.261a3.023 3.023 0 0 1 1.826-2.217c.864-.289 1.448.237 1.3 1.173a3.02 3.02 0 0 1-1.826 2.217c-.86.289-1.444-.237-1.3-1.173ZM300.625 248.223a2.863 2.863 0 0 1 1.825-2.043c.817-.216 1.322.348 1.13 1.261a2.864 2.864 0 0 1-1.825 2.043c-.817.216-1.323-.348-1.13-1.261ZM300.711 234.186a2.7 2.7 0 0 1 1.826-1.869c.768-.144 1.2.459.956 1.348a2.7 2.7 0 0 1-1.825 1.869c-.769.144-1.197-.463-.957-1.348ZM300.798 220.149a2.521 2.521 0 0 1 1.826-1.7c.72-.072 1.07.57.782 1.434a2.523 2.523 0 0 1-1.825 1.7c-.722.073-1.071-.57-.783-1.434ZM300.885 206.112a2.335 2.335 0 0 1 1.826-1.521c.672 0 .945.681.608 1.521a2.334 2.334 0 0 1-1.825 1.521c-.672.001-.945-.681-.609-1.521ZM300.972 192.071a2.144 2.144 0 0 1 1.826-1.348c.624.072.819.792.435 1.608a2.142 2.142 0 0 1-1.826 1.348c-.625-.068-.819-.788-.435-1.608ZM301.059 178.038c.432-.793 1.249-1.318 1.826-1.174s.693.9.26 1.695-1.249 1.318-1.825 1.174-.693-.903-.261-1.695ZM301.146 164.001c.48-.769 1.3-1.216 1.826-1s.567 1.014.087 1.782-1.3 1.216-1.826 1-.567-1.012-.087-1.782ZM301.233 149.963c.528-.744 1.346-1.114 1.826-.826s.441 1.125-.087 1.869-1.346 1.115-1.826.826-.441-1.124.087-1.869ZM301.32 135.926c.576-.72 1.393-1.012 1.825-.652s.316 1.236-.26 1.956-1.394 1.013-1.826.652-.315-1.236.261-1.956ZM301.407 121.889c.624-.7 1.442-.91 1.826-.478s.189 1.346-.435 2.043-1.442.91-1.826.478-.19-1.347.435-2.043ZM301.494 107.852c.672-.672 1.489-.809 1.825-.305a1.911 1.911 0 0 1-.608 2.13c-.672.673-1.49.809-1.826.3a1.913 1.913 0 0 1 .609-2.125ZM301.581 93.815c.72-.648 1.537-.707 1.825-.131a2.134 2.134 0 0 1-.782 2.217c-.72.648-1.538.707-1.826.131a2.133 2.133 0 0 1 .783-2.217ZM301.668 79.778c.768-.625 1.585-.6 1.825.043a2.358 2.358 0 0 1-.956 2.3c-.768.624-1.586.6-1.826-.043a2.358 2.358 0 0 1 .957-2.3ZM301.759 65.741c.816-.6 1.633-.5 1.825.216a2.582 2.582 0 0 1-1.13 2.391c-.816.6-1.634.5-1.825-.216a2.58 2.58 0 0 1 1.13-2.391ZM285.179 311.922a3.434 3.434 0 0 1-1.825 2.739c-1.009.5-1.826.1-1.826-.913a3.433 3.433 0 0 1 1.826-2.738c1.005-.505 1.825-.096 1.825.912ZM281.615 299.711a3.3 3.3 0 0 1 1.826-2.564c.96-.433 1.7.015 1.652 1a3.309 3.309 0 0 1-1.826 2.565c-.961.431-1.7-.016-1.652-1.001ZM281.702 285.671a3.168 3.168 0 0 1 1.825-2.391c.913-.36 1.575.126 1.479 1.087a3.171 3.171 0 0 1-1.826 2.391c-.912.363-1.574-.124-1.478-1.087ZM281.789 271.637a3.021 3.021 0 0 1 1.826-2.217c.864-.288 1.448.237 1.3 1.173a3.023 3.023 0 0 1-1.826 2.217c-.86.289-1.444-.239-1.3-1.173ZM281.876 257.6a2.864 2.864 0 0 1 1.826-2.043c.816-.217 1.322.348 1.13 1.26a2.864 2.864 0 0 1-1.826 2.043c-.816.211-1.322-.348-1.13-1.26ZM282.223 201.451a2.147 2.147 0 0 1 1.826-1.348c.624.073.819.792.435 1.609a2.14 2.14 0 0 1-1.826 1.347c-.624-.071-.819-.788-.435-1.608ZM282.311 187.414c.432-.792 1.249-1.318 1.825-1.174s.693.9.261 1.7-1.249 1.317-1.826 1.173-.693-.907-.26-1.699ZM282.397 173.377c.481-.768 1.3-1.216 1.826-1s.567 1.014.087 1.782-1.3 1.216-1.825 1-.568-1.014-.088-1.782ZM282.485 159.34c.527-.745 1.345-1.114 1.825-.826s.441 1.124-.087 1.869-1.345 1.114-1.826.826-.438-1.125.088-1.869ZM282.571 145.303c.577-.721 1.394-1.013 1.826-.653s.315 1.236-.261 1.957-1.393 1.012-1.825.652-.316-1.236.26-1.956ZM282.659 131.265c.624-.7 1.442-.91 1.826-.478s.189 1.347-.435 2.043-1.441.911-1.826.478-.19-1.346.435-2.043ZM282.745 117.228c.672-.672 1.49-.808 1.826-.3a1.914 1.914 0 0 1-.609 2.13c-.672.672-1.489.808-1.825.3a1.913 1.913 0 0 1 .608-2.13ZM282.832 103.191c.72-.648 1.538-.707 1.826-.13a2.133 2.133 0 0 1-.783 2.217c-.72.648-1.537.706-1.825.13a2.134 2.134 0 0 1 .782-2.217ZM282.919 89.154c.768-.624 1.586-.605 1.826.043a2.36 2.36 0 0 1-.956 2.3c-.769.625-1.586.6-1.826-.043a2.36 2.36 0 0 1 .956-2.3ZM283.006 75.117c.816-.6 1.634-.5 1.826.217a2.584 2.584 0 0 1-1.13 2.391c-.817.6-1.634.5-1.826-.217a2.585 2.585 0 0 1 1.13-2.391ZM283.267 33.005c.96-.528 1.777-.2 1.826.739a3.233 3.233 0 0 1-1.652 2.652c-.961.528-1.778.2-1.826-.739a3.232 3.232 0 0 1 1.652-2.652ZM285.179 19.881a3.437 3.437 0 0 1-1.825 2.739c-1.009.5-1.826.095-1.826-.913a3.433 3.433 0 0 1 1.826-2.739c1.005-.504 1.825-.097 1.825.913ZM266.431 321.299a3.433 3.433 0 0 1-1.826 2.738c-1.008.5-1.826.1-1.826-.912a3.435 3.435 0 0 1 1.826-2.739c1.009-.504 1.826-.096 1.826.913ZM262.866 309.088a3.308 3.308 0 0 1 1.826-2.565c.961-.432 1.7.015 1.652 1a3.3 3.3 0 0 1-1.826 2.565c-.959.432-1.7-.017-1.652-1ZM262.953 295.05a3.171 3.171 0 0 1 1.826-2.391c.912-.36 1.574.127 1.478 1.087a3.169 3.169 0 0 1-1.826 2.391c-.912.36-1.572-.126-1.478-1.087ZM263.127 266.971a2.867 2.867 0 0 1 1.826-2.043c.816-.216 1.322.348 1.13 1.261a2.866 2.866 0 0 1-1.826 2.043c-.816.221-1.322-.343-1.13-1.261ZM263.214 252.939a2.7 2.7 0 0 1 1.826-1.869c.768-.145 1.2.459.956 1.347a2.7 2.7 0 0 1-1.826 1.869c-.768.145-1.196-.459-.956-1.347ZM263.301 238.902a2.522 2.522 0 0 1 1.826-1.7c.72-.072 1.07.571.782 1.435a2.519 2.519 0 0 1-1.826 1.7c-.724.071-1.07-.571-.782-1.435ZM263.388 224.865a2.332 2.332 0 0 1 1.826-1.522c.672 0 .944.681.608 1.522a2.333 2.333 0 0 1-1.825 1.521c-.673 0-.945-.681-.609-1.521ZM263.475 210.827a2.141 2.141 0 0 1 1.826-1.347c.624.072.819.792.434 1.608a2.142 2.142 0 0 1-1.826 1.348c-.624-.072-.818-.792-.434-1.609ZM263.559 196.79c.432-.792 1.249-1.317 1.826-1.174s.693.9.26 1.7-1.249 1.318-1.825 1.174-.69-.907-.261-1.7ZM264.083 112.571c.721-.648 1.538-.706 1.826-.13a2.135 2.135 0 0 1-.782 2.217c-.72.648-1.538.707-1.826.13a2.135 2.135 0 0 1 .782-2.217ZM264.17 98.53c.769-.624 1.586-.6 1.826.044a2.358 2.358 0 0 1-.956 2.3c-.768.625-1.586.606-1.826-.043a2.36 2.36 0 0 1 .956-2.301ZM264.259 84.493c.816-.6 1.634-.5 1.826.217a2.584 2.584 0 0 1-1.13 2.391c-.816.6-1.634.5-1.826-.217a2.585 2.585 0 0 1 1.13-2.391ZM264.344 70.456c.865-.576 1.682-.4 1.826.391a2.806 2.806 0 0 1-1.3 2.478c-.864.576-1.682.4-1.826-.391a2.806 2.806 0 0 1 1.3-2.478ZM264.431 56.419c.912-.552 1.73-.3 1.826.565a3.024 3.024 0 0 1-1.478 2.565c-.912.552-1.73.3-1.826-.565a3.022 3.022 0 0 1 1.478-2.565Z"/></g><g fill="#b9b19c"><path d="M209.15 447.271a3.434 3.434 0 0 1-1.825 2.739c-1.008.5-1.826.1-1.826-.913a3.435 3.435 0 0 1 1.826-2.738c1.008-.507 1.825-.098 1.825.912ZM205.586 435.058a3.306 3.306 0 0 1 1.826-2.565c.96-.432 1.7.016 1.652 1a3.307 3.307 0 0 1-1.826 2.565c-.961.432-1.7-.015-1.652-1ZM205.673 421.021a3.166 3.166 0 0 1 1.826-2.391c.912-.36 1.574.126 1.478 1.086a3.171 3.171 0 0 1-1.826 2.392c-.913.363-1.574-.126-1.478-1.087ZM205.759 406.984a3.021 3.021 0 0 1 1.826-2.217c.864-.288 1.448.237 1.3 1.173a3.024 3.024 0 0 1-1.826 2.218c-.859.288-1.443-.238-1.3-1.174ZM205.847 392.947a2.866 2.866 0 0 1 1.825-2.044c.817-.216 1.323.349 1.131 1.261a2.866 2.866 0 0 1-1.826 2.043c-.818.216-1.318-.348-1.13-1.26ZM205.934 378.91a2.7 2.7 0 0 1 1.825-1.87c.769-.144 1.2.459.957 1.348a2.7 2.7 0 0 1-1.826 1.869c-.768.144-1.196-.459-.956-1.347ZM190.402 456.646a3.433 3.433 0 0 1-1.826 2.738c-1.008.5-1.826.1-1.826-.912a3.435 3.435 0 0 1 1.826-2.739c1.009-.504 1.826-.096 1.826.913ZM186.837 444.434a3.305 3.305 0 0 1 1.826-2.564c.96-.433 1.7.015 1.652 1a3.305 3.305 0 0 1-1.826 2.565c-.96.436-1.7-.016-1.652-1.001ZM186.924 430.397a3.17 3.17 0 0 1 1.826-2.391c.912-.36 1.574.127 1.478 1.087a3.168 3.168 0 0 1-1.826 2.391c-.912.36-1.574-.127-1.478-1.087ZM187.011 416.36a3.021 3.021 0 0 1 1.826-2.217c.864-.288 1.448.237 1.3 1.174a3.024 3.024 0 0 1-1.826 2.217c-.86.288-1.444-.238-1.3-1.174ZM187.098 402.323a2.866 2.866 0 0 1 1.826-2.043c.816-.216 1.322.348 1.13 1.26a2.862 2.862 0 0 1-1.826 2.043c-.816.217-1.322-.348-1.13-1.26ZM187.185 388.286a2.7 2.7 0 0 1 1.826-1.87c.768-.143 1.2.46.956 1.348a2.7 2.7 0 0 1-1.826 1.869c-.768.144-1.196-.462-.956-1.347ZM187.272 374.249a2.522 2.522 0 0 1 1.826-1.7c.72-.072 1.07.57.782 1.435a2.519 2.519 0 0 1-1.826 1.695c-.72.076-1.07-.566-.782-1.43ZM187.359 360.212a2.332 2.332 0 0 1 1.825-1.522c.673 0 .945.681.609 1.521a2.335 2.335 0 0 1-1.825 1.522c-.673 0-.945-.681-.609-1.521ZM187.446 346.171a2.142 2.142 0 0 1 1.826-1.348c.624.072.818.792.434 1.608a2.143 2.143 0 0 1-1.826 1.348c-.621-.068-.821-.788-.434-1.608ZM187.533 332.137c.432-.792 1.249-1.318 1.826-1.173s.693.9.26 1.695-1.249 1.318-1.825 1.174-.693-.904-.261-1.696ZM187.62 318.1c.48-.768 1.3-1.216 1.826-1s.567 1.014.086 1.782-1.3 1.216-1.825 1-.567-1.011-.087-1.782ZM187.707 304.063c.528-.744 1.345-1.114 1.825-.826s.442 1.125-.086 1.869-1.346 1.114-1.826.826-.442-1.125.087-1.869ZM187.794 290.026c.576-.72 1.393-1.013 1.825-.652s.316 1.235-.26 1.956-1.394 1.012-1.826.652-.316-1.236.261-1.956ZM187.88 275.988c.625-.7 1.442-.91 1.826-.478s.19 1.347-.434 2.043-1.442.911-1.826.479-.187-1.347.434-2.044ZM187.968 261.951c.672-.672 1.489-.808 1.825-.3a1.912 1.912 0 0 1-.609 2.13c-.672.672-1.489.808-1.825.305a1.914 1.914 0 0 1 .609-2.135ZM188.059 247.914c.721-.648 1.538-.706 1.826-.13a2.134 2.134 0 0 1-.782 2.217c-.72.648-1.538.707-1.826.13a2.134 2.134 0 0 1 .782-2.217ZM188.141 233.877c.769-.624 1.586-.6 1.826.043a2.359 2.359 0 0 1-.956 2.3c-.769.625-1.586.6-1.826-.043a2.36 2.36 0 0 1 .956-2.3ZM188.228 219.84c.817-.6 1.634-.5 1.826.217a2.584 2.584 0 0 1-1.13 2.391c-.816.6-1.634.5-1.826-.217a2.585 2.585 0 0 1 1.13-2.391ZM188.315 205.803c.864-.577 1.682-.4 1.826.391a2.808 2.808 0 0 1-1.3 2.478c-.865.576-1.682.4-1.826-.391a2.806 2.806 0 0 1 1.3-2.478ZM188.402 191.766c.913-.553 1.73-.3 1.826.565a3.021 3.021 0 0 1-1.478 2.564c-.912.553-1.73.3-1.826-.564a3.022 3.022 0 0 1 1.478-2.565ZM188.489 177.728c.96-.528 1.778-.2 1.826.739a3.231 3.231 0 0 1-1.652 2.652c-.96.528-1.778.2-1.826-.738a3.234 3.234 0 0 1 1.652-2.653ZM190.402 164.604a3.436 3.436 0 0 1-1.826 2.739c-1.008.5-1.826.1-1.826-.913a3.439 3.439 0 0 1 1.826-2.739c1.009-.504 1.826-.095 1.826.913ZM171.653 466.022a3.436 3.436 0 0 1-1.826 2.739c-1.008.5-1.825.095-1.825-.913a3.437 3.437 0 0 1 1.825-2.739c1.009-.504 1.826-.096 1.826.913ZM168.089 453.811a3.3 3.3 0 0 1 1.825-2.565c.961-.432 1.7.015 1.652 1a3.3 3.3 0 0 1-1.826 2.564c-.96.433-1.699-.015-1.651-.999ZM168.176 439.771a3.166 3.166 0 0 1 1.825-2.391c.913-.36 1.574.126 1.478 1.086a3.167 3.167 0 0 1-1.825 2.391c-.913.363-1.574-.123-1.478-1.086ZM168.259 425.737a3.027 3.027 0 0 1 1.826-2.218c.864-.288 1.448.238 1.3 1.174a3.021 3.021 0 0 1-1.825 2.217c-.858.288-1.441-.239-1.301-1.173ZM168.35 411.699a2.862 2.862 0 0 1 1.825-2.043c.817-.216 1.323.348 1.13 1.261a2.864 2.864 0 0 1-1.825 2.043c-.816.216-1.321-.348-1.13-1.261ZM168.436 397.662a2.7 2.7 0 0 1 1.826-1.869c.768-.144 1.2.459.956 1.347a2.7 2.7 0 0 1-1.825 1.87c-.769.144-1.197-.46-.957-1.348ZM168.523 383.625a2.521 2.521 0 0 1 1.826-1.695c.72-.072 1.071.57.783 1.434a2.523 2.523 0 0 1-1.826 1.695c-.72.072-1.071-.57-.783-1.434ZM168.61 369.588a2.335 2.335 0 0 1 1.826-1.522c.672 0 .945.681.609 1.522a2.336 2.336 0 0 1-1.826 1.521c-.672 0-.945-.681-.609-1.521ZM168.697 355.551a2.144 2.144 0 0 1 1.826-1.348c.624.072.819.792.435 1.608a2.142 2.142 0 0 1-1.826 1.348c-.624-.072-.819-.788-.435-1.608ZM168.784 341.514c.432-.793 1.25-1.318 1.826-1.174s.693.9.261 1.695-1.25 1.318-1.826 1.174-.693-.903-.261-1.695ZM168.871 327.477c.48-.769 1.3-1.217 1.826-1s.567 1.014.087 1.783-1.3 1.216-1.826 1-.567-1.015-.087-1.783ZM168.959 313.439c.528-.744 1.346-1.114 1.826-.826s.441 1.125-.087 1.869-1.346 1.114-1.826.826-.442-1.125.087-1.869ZM169.045 299.402c.576-.72 1.394-1.012 1.826-.652s.315 1.236-.261 1.956-1.394 1.012-1.826.652-.315-1.236.261-1.956ZM169.132 285.365c.624-.7 1.442-.91 1.826-.478s.189 1.346-.435 2.043-1.441.91-1.826.478-.189-1.347.435-2.043ZM169.219 271.328c.672-.672 1.489-.809 1.826-.3a1.913 1.913 0 0 1-.609 2.13c-.672.673-1.49.809-1.826.305a1.913 1.913 0 0 1 .609-2.135ZM169.306 257.29c.72-.647 1.537-.706 1.826-.13a2.135 2.135 0 0 1-.783 2.217c-.72.648-1.538.707-1.826.131a2.137 2.137 0 0 1 .783-2.218ZM169.393 243.253c.768-.624 1.585-.6 1.825.044a2.358 2.358 0 0 1-.956 2.3c-.768.624-1.586.605-1.826-.043a2.36 2.36 0 0 1 .957-2.301ZM169.48 229.216c.816-.6 1.633-.5 1.825.217a2.58 2.58 0 0 1-1.13 2.391c-.816.6-1.634.5-1.825-.217a2.582 2.582 0 0 1 1.13-2.391ZM152.905 475.398a3.437 3.437 0 0 1-1.826 2.739c-1.009.5-1.826.1-1.826-.913a3.433 3.433 0 0 1 1.826-2.738c1.008-.505 1.826-.096 1.826.912ZM149.34 463.187a3.3 3.3 0 0 1 1.826-2.565c.96-.432 1.7.016 1.652 1a3.309 3.309 0 0 1-1.826 2.565c-.96.432-1.7-.016-1.652-1ZM149.427 449.15a3.167 3.167 0 0 1 1.826-2.391c.912-.36 1.574.126 1.478 1.087a3.172 3.172 0 0 1-1.826 2.391c-.912.36-1.574-.127-1.478-1.087ZM149.514 435.113a3.021 3.021 0 0 1 1.826-2.217c.864-.288 1.448.237 1.3 1.173a3.021 3.021 0 0 1-1.826 2.217c-.855.285-1.444-.237-1.3-1.173ZM149.601 421.071a2.865 2.865 0 0 1 1.826-2.044c.816-.216 1.322.349 1.13 1.261a2.867 2.867 0 0 1-1.826 2.043c-.816.221-1.322-.343-1.13-1.26ZM149.949 364.927a2.145 2.145 0 0 1 1.825-1.348c.625.072.819.792.435 1.609a2.141 2.141 0 0 1-1.826 1.347c-.624-.071-.819-.792-.434-1.608ZM150.036 350.89c.432-.792 1.249-1.318 1.825-1.174s.693.9.261 1.695-1.249 1.318-1.826 1.174-.693-.903-.26-1.695ZM150.123 336.853c.48-.769 1.3-1.216 1.825-1s.567 1.014.087 1.782-1.3 1.216-1.825 1-.568-1.014-.087-1.782ZM150.21 322.816c.528-.745 1.345-1.114 1.825-.827s.441 1.125-.087 1.87-1.345 1.114-1.825.826-.442-1.125.087-1.869ZM150.296 308.779c.577-.721 1.394-1.013 1.826-.653s.315 1.236-.261 1.956-1.393 1.013-1.825.652-.316-1.235.26-1.955ZM150.383 294.741c.624-.7 1.442-.91 1.826-.478s.19 1.347-.435 2.043-1.441.911-1.825.478-.19-1.346.434-2.043ZM150.47 280.704c.673-.672 1.49-.809 1.826-.3a1.914 1.914 0 0 1-.609 2.13c-.672.672-1.489.808-1.825.3a1.913 1.913 0 0 1 .608-2.13ZM150.559 266.671c.72-.648 1.538-.707 1.826-.13a2.132 2.132 0 0 1-.783 2.216c-.72.649-1.537.707-1.825.131a2.134 2.134 0 0 1 .782-2.217ZM150.644 252.63c.768-.624 1.586-.6 1.826.043a2.36 2.36 0 0 1-.956 2.3c-.769.624-1.586.6-1.826-.043a2.36 2.36 0 0 1 .956-2.3ZM150.731 238.593c.816-.6 1.634-.5 1.826.217a2.585 2.585 0 0 1-1.13 2.391c-.817.6-1.634.5-1.826-.217a2.584 2.584 0 0 1 1.13-2.391ZM150.992 196.481c.96-.528 1.777-.2 1.826.739a3.233 3.233 0 0 1-1.652 2.652c-.961.528-1.778.2-1.826-.739a3.233 3.233 0 0 1 1.652-2.652ZM152.905 183.357a3.438 3.438 0 0 1-1.826 2.739c-1.009.5-1.826.095-1.826-.913a3.433 3.433 0 0 1 1.826-2.739c1.008-.504 1.826-.096 1.826.913ZM134.159 484.771a3.433 3.433 0 0 1-1.826 2.738c-1.008.5-1.826.1-1.826-.912a3.435 3.435 0 0 1 1.826-2.739c1.006-.5 1.826-.092 1.826.913ZM130.591 472.564a3.307 3.307 0 0 1 1.826-2.565c.961-.433 1.7.015 1.652 1a3.3 3.3 0 0 1-1.826 2.565c-.96.432-1.7-.016-1.652-1ZM130.679 458.526a3.167 3.167 0 0 1 1.825-2.391c.912-.36 1.574.127 1.478 1.087a3.167 3.167 0 0 1-1.826 2.391c-.912.358-1.573-.126-1.477-1.087ZM130.852 430.452a2.866 2.866 0 0 1 1.826-2.043c.816-.216 1.322.348 1.13 1.26a2.864 2.864 0 0 1-1.826 2.043c-.816.217-1.323-.348-1.13-1.26ZM130.939 416.415a2.7 2.7 0 0 1 1.826-1.87c.768-.144 1.2.46.956 1.348a2.7 2.7 0 0 1-1.826 1.869c-.768.144-1.196-.459-.956-1.347ZM131.026 402.378a2.523 2.523 0 0 1 1.826-1.7c.72-.072 1.07.571.782 1.435a2.52 2.52 0 0 1-1.825 1.695c-.721.076-1.071-.566-.783-1.43ZM131.113 388.341a2.332 2.332 0 0 1 1.826-1.522c.672 0 .944.681.608 1.521a2.333 2.333 0 0 1-1.825 1.522c-.672 0-.945-.681-.609-1.521ZM131.2 374.303a2.143 2.143 0 0 1 1.826-1.347c.624.072.819.792.434 1.608a2.141 2.141 0 0 1-1.825 1.348c-.625-.072-.819-.792-.435-1.609ZM131.287 360.266c.432-.792 1.249-1.318 1.826-1.174s.693.9.26 1.7-1.249 1.317-1.825 1.174-.689-.907-.261-1.7ZM131.809 276.043c.72-.648 1.537-.706 1.825-.13a2.134 2.134 0 0 1-.782 2.217c-.72.648-1.538.707-1.826.13a2.134 2.134 0 0 1 .783-2.217ZM131.895 262.006c.769-.624 1.586-.6 1.826.044a2.358 2.358 0 0 1-.956 2.3c-.768.625-1.586.6-1.826-.043a2.36 2.36 0 0 1 .956-2.301ZM131.982 247.971c.817-.6 1.634-.5 1.826.217a2.585 2.585 0 0 1-1.13 2.391c-.816.6-1.634.5-1.826-.217a2.584 2.584 0 0 1 1.13-2.391ZM132.069 233.932c.865-.576 1.682-.4 1.826.391a2.808 2.808 0 0 1-1.3 2.478c-.864.576-1.682.4-1.826-.391a2.807 2.807 0 0 1 1.3-2.478ZM132.159 219.895c.913-.553 1.73-.3 1.826.565a3.024 3.024 0 0 1-1.478 2.565c-.912.552-1.73.3-1.825-.565a3.02 3.02 0 0 1 1.477-2.565Z"/></g><g fill="#b9b19c" transform="translate(-1291.841 -3802.029)"><path d="M1314.688 4152.345a6.225 6.225 0 1 1-6.225-6.226 6.225 6.225 0 0 1 6.225 6.226Z" opacity=".7" style="mix-blend-mode:screen;isolation:isolate"/><circle cx="3.113" cy="3.113" r="3.113" transform="translate(1336.774 4168.846)" style="mix-blend-mode:screen;isolation:isolate"/><path d="M1385.162 4138.974a3.112 3.112 0 1 1-3.113-3.112 3.113 3.113 0 0 1 3.113 3.112ZM1368.522 4163.14a5.092 5.092 0 1 1-5.092-5.092 5.092 5.092 0 0 1 5.092 5.092Z" opacity=".7" style="mix-blend-mode:screen;isolation:isolate"/><circle cx="3.113" cy="3.113" r="3.113" transform="translate(1352.112 4179.203)" opacity=".7" style="mix-blend-mode:screen;isolation:isolate"/><circle cx="3.113" cy="3.113" r="3.113" transform="translate(1291.841 4191.867)" opacity=".7" style="mix-blend-mode:screen;isolation:isolate"/><path d="M1364.563 4121.407a6.225 6.225 0 1 1-6.226-6.226 6.225 6.225 0 0 1 6.226 6.226ZM1330.316 4194.242a3.442 3.442 0 1 1-3.442-3.442 3.443 3.443 0 0 1 3.442 3.442Z" style="mix-blend-mode:screen;isolation:isolate"/></g></svg>